
<svg width="171" height="36" viewBox="0 0 145.296 36" fill="none" xmlns="http://www.w3.org/2000/svg" xmlns:bx="https://boxy-svg.com">
  <path fill-rule="evenodd" clip-rule="evenodd" d="M 27.833 18 C 27.833 25.088 22.088 30.833 15 30.833 C 7.912 30.833 2.167 25.088 2.167 18 C 2.167 10.912 7.912 5.167 15 5.167 C 22.088 5.167 27.833 10.912 27.833 18 Z M 30 18 C 30 32.694 29.047 33 15 33 C 0.097 33 0 32.981 0 18 C 0 3.368 0.097 3 15 3 C 29.638 3 30 3.567 30 18 Z M 23.276 11.276 C 23.276 12.133 22.581 12.828 21.724 12.828 C 20.867 12.828 20.173 12.133 20.173 11.276 C 20.173 10.419 20.867 9.724 21.724 9.724 C 22.581 9.724 23.276 10.419 23.276 11.276 Z M 12.595 18.045 C 13.164 19.645 14.239 20.034 15.542 19.564 C 16.845 19.094 17.631 18.118 17.26 16.716 C 16.889 15.314 15.417 14.528 14.114 14.899 C 12.811 15.27 12.026 16.445 12.595 18.045 Z M 6.341 20.587 C 7.318 24.235 11.068 26.399 14.716 25.422 C 18.363 24.444 20.528 20.695 19.551 17.047 C 18.573 13.4 14.824 11.235 11.176 12.212 C 7.528 13.19 5.364 16.939 6.341 20.587 Z" fill="url(#paint0_linear_120_1360)" style="fill-rule: evenodd;"/>
  <defs>
    <linearGradient id="paint0_linear_120_1360" x1="15" y1="3" x2="15" y2="33" gradientUnits="userSpaceOnUse">
      <stop style="stop-color: rgb(23, 80, 172);"/>
      <stop offset="0.461" style="stop-color: rgb(84, 148, 218);"/>
      <stop offset="1" style="stop-color: rgb(115, 185, 238);"/>
    </linearGradient>
    <bx:guide x="29.92" y="-1.2" angle="-180"/>
    <style bx:fonts="AR One Sans">@import url(https://fonts.googleapis.com/css2?family=AR+One+Sans%3Aital%2Cwght%400%2C400..700&amp;display=swap);</style>
  </defs>
  <text style="fill: rgb(255, 255, 255); font-family: 'AR One Sans'; font-size: 27px; font-weight: 700; letter-spacing: -0.5px; text-transform: capitalize; white-space: pre;" x="37.233" y="28.038">blugram</text>
</svg>