<?xml version="1.0" encoding="utf-8"?>
<svg viewBox="0 0 154.126 36" fill="none" xmlns="http://www.w3.org/2000/svg">
  <defs>
    <linearGradient id="paint0_linear_120_1360" x1="15" y1="3" x2="15" y2="33" gradientUnits="userSpaceOnUse" spreadMethod="pad">
      <stop style="stop-color: rgb(115, 185, 238);"/>
      <stop offset="0.461" style="stop-color: rgb(84, 148, 218);"/>
      <stop offset="1" style="stop-color: rgb(23, 80, 172);"/>
    </linearGradient>
  </defs>
  <path fill-rule="evenodd" clip-rule="evenodd" d="M 27.833 18 C 27.833 25.088 22.088 30.833 15 30.833 C 7.912 30.833 2.167 25.088 2.167 18 C 2.167 10.912 7.912 5.167 15 5.167 C 22.088 5.167 27.833 10.912 27.833 18 Z M 30 18 C 30 33.114 29.559 33 15 33 C -0.015 33 0 32.298 0 18 C 0 3.321 0.054 3 15 3 C 30.031 3 30 3.061 30 18 Z M 23.276 11.276 C 23.276 12.133 22.581 12.828 21.724 12.828 C 20.867 12.828 20.173 12.133 20.173 11.276 C 20.173 10.419 20.867 9.724 21.724 9.724 C 22.581 9.724 23.276 10.419 23.276 11.276 Z M 10.488 19.209 C 11.156 21.701 13.717 23.18 16.209 22.512 C 18.701 21.844 20.18 19.283 19.512 16.791 C 18.844 14.299 16.283 12.82 13.791 13.488 C 11.299 14.156 9.82 16.717 10.488 19.209 Z M 8.395 19.77 C 9.372 23.418 13.122 25.582 16.77 24.605 C 20.417 23.627 22.582 19.878 21.605 16.23 C 20.627 12.583 16.878 10.418 13.23 11.395 C 9.582 12.373 7.418 16.122 8.395 19.77 Z" fill="url(#paint0_linear_120_1360)" style="paint-order: fill;" transform="matrix(1, 0, 0, 1, 0, -7.105427357601002e-15)"/>
  <path d="M 51.31 17.97 Q 51.16 18.05 51.31 18.12 Q 53.58 19.32 53.58 22.12 Q 53.58 24.62 51.86 25.85 Q 50.13 27.07 47.33 27.07 L 40.68 27.07 Q 40.56 27.07 40.47 26.98 Q 40.38 26.9 40.38 26.77 L 40.38 9.87 Q 40.38 9.75 40.47 9.66 Q 40.56 9.57 40.68 9.57 L 47.13 9.57 Q 50.18 9.57 51.75 10.72 Q 53.31 11.87 53.31 14.45 Q 53.31 16.9 51.31 17.97 Z M 44.66 13.12 Q 44.53 13.12 44.53 13.25 L 44.53 16.4 Q 44.53 16.52 44.66 16.52 L 47.13 16.52 Q 48.16 16.52 48.71 16.08 Q 49.26 15.65 49.26 14.85 Q 49.26 14.02 48.71 13.57 Q 48.16 13.12 47.13 13.12 L 44.66 13.12 Z M 47.33 23.5 Q 48.33 23.5 48.88 23.03 Q 49.43 22.57 49.43 21.7 Q 49.43 20.85 48.9 20.38 Q 48.36 19.92 47.33 19.92 L 44.66 19.92 Q 44.53 19.92 44.53 20.05 L 44.53 23.37 Q 44.53 23.5 44.66 23.5 L 47.33 23.5 Z M 54.51 27.07 Q 54.38 27.07 54.3 26.98 Q 54.21 26.9 54.21 26.77 L 54.21 9.87 Q 54.21 9.75 54.3 9.66 Q 54.38 9.57 54.51 9.57 L 58.06 9.57 Q 58.18 9.57 58.27 9.66 Q 58.36 9.75 58.36 9.87 L 58.36 26.77 Q 58.36 26.9 58.27 26.98 Q 58.18 27.07 58.06 27.07 L 54.51 27.07 Z M 69.68 14.45 Q 69.68 14.32 69.77 14.23 Q 69.86 14.15 69.98 14.15 L 73.53 14.15 Q 73.66 14.15 73.75 14.23 Q 73.83 14.32 73.83 14.45 L 73.83 26.77 Q 73.83 26.9 73.75 26.98 Q 73.66 27.07 73.53 27.07 L 69.98 27.07 Q 69.86 27.07 69.77 26.98 Q 69.68 26.9 69.68 26.77 L 69.68 25.9 Q 69.68 25.82 69.63 25.8 Q 69.58 25.77 69.53 25.85 Q 68.53 27.27 66.38 27.27 Q 64.48 27.27 63.31 26.07 Q 62.13 24.87 62.13 22.72 L 62.13 14.45 Q 62.13 14.32 62.22 14.23 Q 62.31 14.15 62.43 14.15 L 65.98 14.15 Q 66.11 14.15 66.2 14.23 Q 66.28 14.32 66.28 14.45 L 66.28 21.77 Q 66.28 22.65 66.73 23.17 Q 67.18 23.7 67.96 23.7 Q 68.66 23.7 69.12 23.27 Q 69.58 22.85 69.68 22.15 L 69.68 14.45 Z M 82.81 27.27 Q 80.81 27.27 79.3 26.47 Q 77.78 25.67 76.95 24.22 Q 76.11 22.77 76.11 20.87 L 76.11 15.75 Q 76.11 13.85 76.95 12.41 Q 77.78 10.97 79.3 10.17 Q 80.81 9.37 82.81 9.37 Q 84.78 9.37 86.31 10.13 Q 87.83 10.9 88.67 12.22 Q 89.51 13.55 89.51 15.15 L 89.51 15.27 Q 89.51 15.4 89.42 15.48 Q 89.33 15.57 89.21 15.57 L 85.66 15.57 Q 85.53 15.57 85.45 15.48 Q 85.36 15.4 85.36 15.27 Q 85.36 14.3 84.67 13.61 Q 83.98 12.92 82.81 12.92 Q 81.66 12.92 80.96 13.67 Q 80.26 14.42 80.26 15.62 L 80.26 21 Q 80.26 22.2 81.03 22.95 Q 81.81 23.7 82.98 23.7 Q 84.08 23.7 84.76 23.11 Q 85.43 22.52 85.43 21.47 L 85.43 20.77 Q 85.43 20.65 85.31 20.65 L 82.81 20.65 Q 82.68 20.65 82.6 20.56 Q 82.51 20.47 82.51 20.35 L 82.51 17.6 Q 82.51 17.47 82.6 17.38 Q 82.68 17.3 82.81 17.3 L 89.21 17.3 Q 89.33 17.3 89.42 17.38 Q 89.51 17.47 89.51 17.6 L 89.51 21 Q 89.51 22.87 88.67 24.3 Q 87.83 25.72 86.32 26.5 Q 84.81 27.27 82.81 27.27 Z M 99.08 13.97 Q 99.98 13.97 100.48 14.3 Q 100.68 14.42 100.63 14.67 L 100.06 18.15 Q 100.03 18.45 99.71 18.32 Q 99.26 18.22 98.86 18.22 Q 98.43 18.22 98.21 18.27 Q 97.43 18.37 96.9 18.87 Q 96.36 19.37 96.36 20.2 L 96.36 26.77 Q 96.36 26.9 96.27 26.98 Q 96.18 27.07 96.06 27.07 L 92.51 27.07 Q 92.38 27.07 92.3 26.98 Q 92.21 26.9 92.21 26.77 L 92.21 14.45 Q 92.21 14.32 92.3 14.23 Q 92.38 14.15 92.51 14.15 L 96.06 14.15 Q 96.18 14.15 96.27 14.23 Q 96.36 14.32 96.36 14.45 L 96.36 15.25 Q 96.36 15.32 96.41 15.35 Q 96.46 15.37 96.48 15.3 Q 97.48 13.97 99.08 13.97 Z M 107.61 13.95 Q 109.28 13.95 110.63 14.51 Q 111.98 15.07 112.76 16.06 Q 113.53 17.05 113.53 18.25 L 113.53 26.77 Q 113.53 26.9 113.45 26.98 Q 113.36 27.07 113.23 27.07 L 109.68 27.07 Q 109.56 27.07 109.47 26.98 Q 109.38 26.9 109.38 26.77 L 109.38 25.9 Q 109.38 25.8 109.33 25.78 Q 109.28 25.77 109.23 25.87 Q 108.28 27.27 105.98 27.27 Q 103.98 27.27 102.8 26.33 Q 101.61 25.4 101.61 23.57 Q 101.61 21.65 102.95 20.6 Q 104.28 19.55 106.83 19.55 L 109.26 19.55 Q 109.38 19.55 109.38 19.42 L 109.38 18.95 Q 109.38 18.27 108.93 17.88 Q 108.48 17.5 107.68 17.5 Q 107.08 17.5 106.65 17.72 Q 106.21 17.95 106.08 18.3 Q 105.96 18.57 105.73 18.55 L 102.13 18.07 Q 101.83 18.02 101.83 17.85 Q 101.93 16.75 102.7 15.86 Q 103.46 14.97 104.75 14.46 Q 106.03 13.95 107.61 13.95 Z M 107.21 24.3 Q 108.16 24.3 108.77 23.81 Q 109.38 23.32 109.38 22.52 L 109.38 21.92 Q 109.38 21.8 109.26 21.8 L 107.76 21.8 Q 106.81 21.8 106.3 22.12 Q 105.78 22.45 105.78 23.1 Q 105.78 23.65 106.16 23.97 Q 106.53 24.3 107.21 24.3 Z M 131.06 13.95 Q 133.01 13.95 134.11 15.15 Q 135.21 16.35 135.21 18.52 L 135.21 26.77 Q 135.21 26.9 135.12 26.98 Q 135.03 27.07 134.91 27.07 L 131.38 27.07 Q 131.26 27.07 131.17 26.98 Q 131.08 26.9 131.08 26.77 L 131.08 19.42 Q 131.08 18.57 130.65 18.03 Q 130.21 17.5 129.48 17.5 Q 128.76 17.5 128.3 18.02 Q 127.83 18.55 127.83 19.42 L 127.83 26.77 Q 127.83 26.9 127.75 26.98 Q 127.66 27.07 127.53 27.07 L 123.98 27.07 Q 123.86 27.07 123.77 26.98 Q 123.68 26.9 123.68 26.77 L 123.68 19.42 Q 123.68 18.57 123.22 18.03 Q 122.76 17.5 122.03 17.5 Q 121.36 17.5 120.91 17.92 Q 120.46 18.35 120.36 19.05 L 120.36 26.77 Q 120.36 26.9 120.27 26.98 Q 120.18 27.07 120.06 27.07 L 116.51 27.07 Q 116.38 27.07 116.3 26.98 Q 116.21 26.9 116.21 26.77 L 116.21 14.45 Q 116.21 14.32 116.3 14.23 Q 116.38 14.15 116.51 14.15 L 120.06 14.15 Q 120.18 14.15 120.27 14.23 Q 120.36 14.32 120.36 14.45 L 120.36 15.57 Q 120.36 15.67 120.41 15.68 Q 120.46 15.7 120.51 15.6 Q 121.48 13.95 123.71 13.95 Q 124.96 13.95 125.91 14.5 Q 126.86 15.05 127.36 16.1 Q 127.43 16.25 127.51 16.07 Q 128.03 15 128.95 14.47 Q 129.86 13.95 131.06 13.95 Z" style="fill: rgb(255, 255, 255);"/>
</svg>