<?xml version="1.0" encoding="utf-8"?>
<svg viewBox="0 3 30 30" xmlns="http://www.w3.org/2000/svg">
  <defs>
    <linearGradient id="paint0_linear_120_1360" x1="15" y1="3" x2="15" y2="33" gradientUnits="userSpaceOnUse" spreadMethod="pad">
      <stop style="stop-color: rgb(115, 185, 238);"/>
      <stop offset="0.461" style="stop-color: rgb(84, 148, 218);"/>
      <stop offset="1" style="stop-color: rgb(23, 80, 172);"/>
    </linearGradient>
  </defs>
  <path fill-rule="evenodd" clip-rule="evenodd" d="M 27.833 18 C 27.833 25.088 22.088 30.833 15 30.833 C 7.912 30.833 2.167 25.088 2.167 18 C 2.167 10.912 7.912 5.167 15 5.167 C 22.088 5.167 27.833 10.912 27.833 18 Z M 30 18 C 30 33.114 29.559 33 15 33 C -0.015 33 0 32.298 0 18 C 0 3.321 0.054 3 15 3 C 30.031 3 30 3.061 30 18 Z M 23.276 11.276 C 23.276 12.133 22.581 12.828 21.724 12.828 C 20.867 12.828 20.173 12.133 20.173 11.276 C 20.173 10.419 20.867 9.724 21.724 9.724 C 22.581 9.724 23.276 10.419 23.276 11.276 Z M 10.488 19.209 C 11.156 21.701 13.717 23.18 16.209 22.512 C 18.701 21.844 20.18 19.283 19.512 16.791 C 18.844 14.299 16.283 12.82 13.791 13.488 C 11.299 14.156 9.82 16.717 10.488 19.209 Z M 8.395 19.77 C 9.372 23.418 13.122 25.582 16.77 24.605 C 20.417 23.627 22.582 19.878 21.605 16.23 C 20.627 12.583 16.878 10.418 13.23 11.395 C 9.582 12.373 7.418 16.122 8.395 19.77 Z" fill="url(#paint0_linear_120_1360)" style="paint-order: fill;" transform="matrix(1, 0, 0, 1, 0, -7.105427357601002e-15)"/>
</svg>