<?xml version="1.0" standalone="no"?>
<!DOCTYPE svg PUBLIC "-//W3C//DTD SVG 20010904//EN"
 "http://www.w3.org/TR/2001/REC-SVG-20010904/DTD/svg10.dtd">
<svg version="1.0" xmlns="http://www.w3.org/2000/svg"
 width="1024.000000pt" height="576.000000pt" viewBox="0 0 1024.000000 576.000000"
 preserveAspectRatio="xMidYMid meet">

<g transform="translate(0.000000,576.000000) scale(0.100000,-0.100000)"
fill="#000000" stroke="none">
<path d="M0 2880 l0 -2880 3395 0 3395 0 0 30 c0 23 5 30 19 30 34 0 80 -22
86 -40 6 -19 53 -19 1676 -20 l1669 0 0 2880 0 2880 -5120 0 -5120 0 0 -2880z
m6125 1809 c13 -13 -11 -28 -45 -30 -17 -1 -19 -3 -7 -6 9 -2 17 -9 17 -14 0
-16 -16 -10 -41 17 -24 25 -24 26 -4 40 20 15 61 11 80 -7z m-135 -24 c0 -19
-4 -35 -10 -35 -5 0 -10 16 -10 35 0 19 5 35 10 35 6 0 10 -16 10 -35z m-1900
6 c13 -25 3 -51 -20 -51 -18 0 -36 43 -25 60 10 16 34 11 45 -9z m93 -8 c7
-35 2 -42 -23 -36 -23 6 -25 16 -10 44 15 27 27 24 33 -8z m46 -10 c-2 -31 -3
-33 -6 -10 -2 15 -9 27 -14 27 -6 0 -7 5 -4 10 13 22 25 8 24 -27z m1727 5
c-4 -31 -26 -35 -26 -5 0 13 3 27 6 30 12 12 24 -4 20 -25z m354 7 c0 -24 -2
-25 -65 -25 -63 0 -65 1 -65 25 0 24 2 25 65 25 63 0 65 -1 65 -25z m-390 -15
c0 -11 -4 -20 -10 -20 -5 0 -10 9 -10 20 0 11 5 20 10 20 6 0 10 -9 10 -20z
m-30 -11 c0 -5 -4 -9 -10 -9 -5 0 -10 7 -10 16 0 8 5 12 10 9 6 -3 10 -10 10
-16z m470 -216 c0 -41 -13 -35 -24 10 -5 20 -3 27 9 27 11 0 15 -11 15 -37z
m-360 15 c0 -5 7 -8 15 -8 8 0 22 -11 31 -25 19 -29 14 -102 -8 -116 -20 -13
-112 -11 -126 3 -7 7 -12 35 -12 63 0 54 12 75 43 75 10 0 16 4 13 9 -3 5 5 8
19 7 14 0 25 -4 25 -8z m-1982 -14 c30 -14 32 -19 32 -68 0 -28 -5 -57 -12
-64 -18 -18 -123 -15 -142 4 -17 16 -21 80 -7 102 11 19 52 40 77 41 11 1 35
-6 52 -15z m797 -51 c0 -38 -5 -67 -13 -75 -11 -11 -13 -1 -10 55 3 68 -8 94
-14 35 -3 -27 -6 -30 -12 -15 -12 26 10 69 32 65 14 -3 17 -15 17 -65z m205
47 c16 -16 17 -20 5 -20 -11 0 -15 -11 -15 -40 0 -46 16 -54 26 -12 9 38 23
52 48 48 17 -3 20 -9 18 -34 -2 -16 2 -33 7 -37 7 -4 11 3 11 17 0 60 64 78
73 20 4 -27 4 -27 12 6 5 23 12 31 22 28 8 -4 19 -6 25 -6 6 0 8 -11 6 -24 -3
-14 -2 -30 2 -36 4 -7 10 3 14 24 8 41 18 50 46 41 15 -5 20 -15 20 -41 0 -19
5 -34 10 -34 6 0 10 15 10 34 0 19 5 38 10 41 6 3 10 1 10 -6 0 -8 4 -8 15 1
12 10 16 9 21 -5 6 -16 8 -16 16 -1 14 25 28 9 28 -30 0 -21 4 -33 10 -29 11
7 14 -8 3 -18 -10 -11 -33 14 -34 37 -1 20 -1 20 -7 -2 -4 -13 -11 -23 -17
-23 -5 0 -13 10 -16 23 -6 21 -6 21 -10 -7 -4 -28 -20 -35 -56 -25 -5 1 -27 1
-50 0 -42 -1 -43 -1 -43 29 0 17 -3 31 -7 31 -12 0 -43 -59 -43 -80 0 -31 -11
-50 -30 -50 -27 0 -35 20 -15 38 16 16 17 16 10 -5 -4 -14 -2 -23 4 -23 6 0
10 13 9 29 -2 27 -6 30 -46 33 -24 2 -46 0 -49 -5 -3 -4 -11 -3 -18 3 -7 6
-20 8 -29 4 -9 -3 -23 -1 -31 6 -9 7 -15 8 -15 2 0 -18 -34 -24 -46 -7 -8 10
-14 12 -19 6 -13 -22 -34 -10 -38 22 l-3 32 -13 -32 c-7 -18 -17 -33 -22 -33
-12 0 -11 77 1 85 6 3 10 -2 10 -11 0 -16 1 -16 18 -1 23 21 32 13 32 -26 0
-24 2 -27 14 -17 8 6 16 21 18 33 2 12 8 20 13 17 6 -3 9 -9 7 -13 -2 -8 22
-37 32 -37 12 0 6 58 -6 62 -9 3 -8 9 2 21 19 20 16 21 40 -3z m1238 3 c-40
-4 -47 -13 -24 -32 11 -10 20 -10 36 -1 12 6 24 9 27 7 2 -3 -5 -10 -16 -17
-12 -6 -21 -19 -21 -30 0 -32 18 -32 35 1 9 17 19 29 22 26 6 -6 -39 -87 -49
-87 -4 0 -10 16 -14 36 -4 20 -20 52 -36 70 l-30 34 53 -2 c44 -1 47 -2 17 -5z
m-2080 -334 c74 -36 115 -124 98 -213 -5 -24 -14 -37 -29 -42 -33 -10 -57 -35
-57 -60 0 -44 -120 -60 -188 -25 -68 35 -102 93 -102 174 0 140 148 229 278
166z m558 6 c19 -14 18 -14 -3 -15 -13 0 -23 -4 -23 -10 0 -5 10 -10 23 -11
21 0 21 -1 2 -8 -14 -6 -26 -2 -40 13 -11 12 -19 19 -17 17 5 -8 -42 -51 -55
-51 -8 0 -21 -7 -30 -15 -8 -8 -19 -13 -24 -10 -18 12 -28 -5 -19 -30 8 -20 6
-25 -6 -25 -14 0 -14 -3 -4 -15 10 -12 8 -22 -14 -55 -14 -21 -21 -42 -16 -45
5 -3 14 4 20 15 17 32 29 23 20 -15 -6 -27 -5 -35 6 -35 8 0 14 -4 14 -10 0
-5 8 -10 18 -10 16 -1 16 -1 -1 -11 -19 -11 -41 -3 -32 12 3 5 -1 6 -9 3 -10
-4 -22 6 -36 28 -32 51 -35 76 -13 96 10 9 24 29 30 43 9 22 8 27 -9 38 -16
10 -17 15 -8 27 7 8 20 14 29 14 20 0 65 46 57 59 -14 22 111 28 140 6z m594
-5 c21 -11 50 -35 64 -53 33 -43 52 -122 37 -159 -9 -24 -16 -28 -56 -29 -25
-1 -51 -2 -57 -3 -9 -1 -13 17 -14 57 0 32 -5 62 -10 66 -14 14 -46 15 -76 3
-29 -12 -46 -62 -33 -101 6 -21 -2 -26 -32 -22 -7 1 -13 -6 -13 -16 0 -14 16
-22 73 -35 81 -20 152 -24 127 -8 -11 7 -12 14 -5 26 6 9 14 16 18 15 4 0 18
-1 32 -1 l26 0 -23 -31 c-39 -52 -123 -83 -150 -55 -11 10 -18 12 -26 4 -6 -6
-22 -8 -36 -4 -34 9 -98 66 -92 82 3 8 -2 17 -10 22 -21 12 -29 82 -14 127 15
46 65 104 105 121 45 20 120 17 165 -6z m577 1 c87 -40 127 -159 85 -254 -25
-57 -52 -74 -124 -79 -55 -4 -58 -3 -58 18 0 13 -4 26 -10 29 -6 4 -10 -6 -10
-24 0 -27 -2 -29 -35 -27 -48 4 -79 28 -104 79 -80 165 88 334 256 258z m533
13 c0 -11 -34 -33 -52 -34 -21 0 -68 -56 -68 -81 0 -11 -7 -34 -16 -51 -9 -16
-13 -40 -10 -52 6 -24 1 -32 -31 -60 l-23 -19 -15 36 c-21 51 -19 57 18 57 24
0 28 3 17 10 -13 8 -13 10 2 10 11 0 15 5 12 15 -9 21 -25 19 -31 -5 -8 -32
-33 -24 -33 10 0 59 42 120 105 153 29 16 125 24 125 11z m-1860 -19 c0 -2
-10 -9 -22 -15 -22 -11 -22 -10 -4 4 21 17 26 19 26 11z m3510 -51 c0 -19 -4
-34 -10 -34 -5 0 -10 18 -10 41 0 24 4 38 10 34 6 -3 10 -22 10 -41z m123 34
c15 -11 10 -13 -33 -13 -50 0 -66 9 -32 18 32 9 48 7 65 -5z m-6219 -24 c13
-34 -32 -72 -50 -42 -5 8 -2 9 9 5 9 -3 19 -2 22 3 4 6 -1 10 -9 10 -18 0 -29
16 -21 30 10 16 42 12 49 -6z m88 -4 c0 -11 1 -26 2 -32 1 -13 -33 -12 -46 1
-9 8 19 51 33 51 5 0 10 -9 11 -20z m47 -17 c-2 -31 -3 -33 -6 -10 -2 15 -9
27 -14 27 -6 0 -7 5 -4 10 13 22 25 8 24 -27z m5931 7 c0 -25 -18 -36 -26 -16
-8 21 3 49 16 41 5 -3 10 -15 10 -25z m348 8 c-3 -21 -8 -23 -63 -23 -55 0
-60 2 -63 23 -3 21 0 22 63 22 63 0 66 -1 63 -22z m-3713 -30 c2 -18 3 -39 4
-45 1 -7 10 -13 21 -13 11 0 20 6 21 13 0 10 2 10 6 0 9 -23 30 -14 26 10 -4
20 -1 23 32 24 29 1 38 -4 45 -20 4 -13 3 -27 -3 -35 -8 -10 -7 -16 2 -21 32
-20 -31 -140 -91 -172 -18 -10 -20 -9 -14 7 6 15 1 13 -20 -6 -22 -20 -26 -21
-21 -7 4 10 7 26 7 35 0 10 10 22 22 27 16 7 25 25 34 65 17 71 17 79 -2 55
-8 -11 -29 -35 -46 -54 -30 -32 -31 -33 -8 -26 24 7 24 7 8 -16 -8 -13 -27
-25 -41 -27 -22 -3 -29 3 -45 40 -11 24 -20 58 -21 76 -1 26 3 32 18 32 11 0
25 -8 30 -17 6 -10 11 -13 11 -7 0 16 -22 34 -42 34 -34 0 -9 52 37 77 25 14
27 12 30 -29z m1735 16 c0 -14 -4 -23 -10 -19 -6 4 -7 11 -4 17 4 6 -3 5 -16
-2 -18 -10 -24 -9 -31 1 -12 19 -1 29 32 29 24 0 29 -4 29 -26z m1775 16 c4
-6 -8 -10 -30 -10 -22 0 -34 4 -30 10 3 6 17 10 30 10 13 0 27 -4 30 -10z
m-185 -20 c0 -11 -4 -20 -10 -20 -5 0 -10 9 -10 20 0 11 5 20 10 20 6 0 10 -9
10 -20z m-30 -5 c0 -8 -4 -15 -10 -15 -5 0 -10 7 -10 15 0 8 5 15 10 15 6 0
10 -7 10 -15z m200 1 c0 -11 -19 -15 -25 -6 -3 5 1 10 9 10 9 0 16 -2 16 -4z
m-1828 -46 c-6 -11 -12 -27 -12 -35 0 -8 -4 -15 -10 -15 -14 0 -12 64 2 78 19
19 35 -4 20 -28z m-755 -77 c-2 -16 -4 -5 -4 22 0 28 2 40 4 28 2 -13 2 -35 0
-50z m-580 5 c-2 -13 -4 -5 -4 17 -1 22 1 32 4 23 2 -10 2 -28 0 -40z m187
-23 c5 -22 4 -26 -4 -15 -5 8 -10 24 -10 34 0 26 6 18 14 -19z m1015 -83 c31
-44 85 -74 149 -82 l57 -7 -48 -2 c-53 -1 -96 17 -140 58 -35 32 -67 92 -66
123 0 15 5 9 13 -19 8 -22 23 -55 35 -71z m-1735 3 c9 -14 35 -37 58 -53 36
-24 51 -27 119 -27 42 0 72 -3 66 -7 -24 -15 -127 -8 -165 11 -68 34 -123 106
-122 158 1 10 7 1 14 -19 8 -21 21 -49 30 -63z m594 -18 c40 -42 79 -60 152
-67 l65 -7 -61 -2 c-80 -1 -137 28 -181 93 -18 27 -33 56 -33 65 1 9 8 0 16
-19 8 -19 27 -48 42 -63z m581 0 c58 -63 158 -85 236 -53 19 8 35 13 35 10 0
-3 -16 -12 -35 -20 -52 -21 -133 -18 -185 9 -47 23 -110 96 -110 125 1 11 7 6
17 -13 8 -16 27 -43 42 -58z m-1385 27 c22 -21 20 -61 -3 -74 -31 -16 -49 -12
-67 15 -15 23 -15 27 0 50 19 29 47 32 70 9z m-2437 -22 l-27 -28 25 -24 c14
-13 25 -28 25 -34 0 -6 -14 4 -32 21 l-32 33 29 30 c16 16 31 30 34 30 2 0 -7
-13 -22 -28z m6551 1 c-21 -2 -55 -2 -75 0 -21 2 -4 4 37 4 41 0 58 -2 38 -4z
m-5480 -15 c29 -29 7 -78 -35 -78 -21 0 -23 5 -23 45 0 40 2 45 23 45 13 0 28
-5 35 -12z m263 -22 c-12 -15 -12 -28 2 -45 10 -11 9 -13 -2 -9 -16 5 -34 56
-25 69 2 5 11 6 20 2 9 -3 11 -9 5 -17z m2799 20 c0 -2 -8 -10 -17 -17 -16
-13 -17 -12 -4 4 13 16 21 21 21 13z m1180 -42 c0 -27 -4 -43 -10 -39 -5 3
-10 24 -10 46 0 21 5 39 10 39 6 0 10 -21 10 -46z m-4203 -16 c-2 -13 -4 -5
-4 17 -1 22 1 32 4 23 2 -10 2 -28 0 -40z m53 40 c0 -4 -4 -8 -9 -8 -5 0 -12
-12 -14 -27 -3 -24 -4 -22 -6 8 -1 26 3 36 14 36 8 0 15 -4 15 -9z m59 -1 c13
-16 5 -27 -21 -27 -11 0 -17 -4 -13 -10 3 -5 13 -6 23 -3 13 5 15 3 5 -7 -17
-18 -43 -5 -43 23 0 38 26 51 49 24z m69 -7 c5 -13 3 -13 -11 -1 -14 11 -18
11 -23 -2 -8 -22 4 -37 23 -30 11 4 14 3 9 -5 -20 -33 -63 7 -44 41 11 21 39
19 46 -3z m2252 15 c0 -7 -63 -45 -75 -45 -5 0 8 11 30 24 47 28 45 27 45 21z
m1668 -47 c-2 -32 -8 -44 -22 -46 -10 -2 -23 2 -30 8 -8 9 -6 11 12 5 13 -4
22 -2 22 4 0 6 -9 11 -20 11 -14 0 -20 7 -20 23 0 30 7 37 37 37 22 0 24 -3
21 -42z m70 11 c4 -30 -22 -46 -44 -28 -15 12 -19 41 -7 53 16 16 48 1 51 -25z
m62 -5 c0 -21 -4 -33 -10 -29 -17 10 -11 65 7 65 2 0 3 -16 3 -36z m67 -4 c1
-33 1 -34 -5 -6 -9 38 -26 39 -30 3 -4 -36 -22 -25 -22 14 0 27 3 30 28 27 23
-3 27 -8 29 -38z m71 -5 c-2 -33 -7 -41 -25 -43 -13 -2 -23 1 -23 7 0 6 6 8
14 5 8 -3 17 -1 21 5 3 7 -2 11 -14 11 -25 0 -34 14 -26 40 4 13 14 19 31 18
23 -2 25 -6 22 -43z m70 22 c2 -12 -3 -17 -20 -18 -23 -1 -23 -1 2 -9 23 -7
23 -8 6 -15 -26 -11 -49 20 -35 47 12 23 42 20 47 -5z m52 13 c0 -5 -4 -10 -9
-10 -5 0 -12 -12 -14 -27 -3 -23 -4 -21 -6 10 -1 27 3 37 14 37 8 0 15 -4 15
-10z m980 -10 c0 -6 -30 -10 -70 -10 -40 0 -70 4 -70 10 0 6 30 10 70 10 40 0
70 -4 70 -10z m-32 -57 c-21 -2 -55 -2 -75 0 -21 2 -4 4 37 4 41 0 58 -2 38
-4z m-4478 -33 c5 8 10 10 10 4 0 -6 -7 -17 -15 -24 -8 -7 -15 -10 -15 -7 0 3
-3 14 -6 24 -5 15 -4 16 5 3 10 -13 12 -13 21 0z m197 3 c-9 -2 -15 -9 -12
-14 4 -5 1 -9 -4 -9 -12 0 -14 13 -4 23 3 4 13 6 22 6 13 -1 12 -2 -2 -6z
m530 -30 c-3 -10 -5 -4 -5 12 0 17 2 24 5 18 2 -7 2 -21 0 -30z m525 -13 c6 0
8 10 5 21 -4 16 -3 19 5 11 14 -14 3 -42 -17 -42 -11 0 -15 9 -14 33 2 30 2
30 6 5 2 -16 9 -28 15 -28z m118 20 c0 -20 -5 -30 -15 -30 -20 0 -31 28 -17
42 8 8 9 5 5 -11 -3 -12 -1 -21 6 -21 6 0 11 11 11 25 0 14 2 25 5 25 3 0 5
-13 5 -30z m340 -20 c5 0 11 7 13 15 4 11 4 10 3 -2 -1 -10 -9 -19 -19 -21
-14 -3 -17 3 -16 30 2 30 2 31 6 6 2 -16 8 -28 13 -28z m287 18 c-3 -7 -5 -2
-5 12 0 14 2 19 5 13 2 -7 2 -19 0 -25z m230 -5 c-3 -10 -5 -4 -5 12 0 17 2
24 5 18 2 -7 2 -21 0 -30z m180 15 c-3 -8 -6 -5 -6 6 -1 11 2 17 5 13 3 -3 4
-12 1 -19z m-2356 -5 c11 -15 11 -16 -1 -6 -11 10 -17 10 -29 0 -14 -11 -14
-10 -2 6 7 9 15 17 16 17 1 0 9 -8 16 -17z m189 -8 c0 -14 -2 -25 -4 -25 -2 0
-6 11 -8 25 -3 14 -1 25 3 25 5 0 9 -11 9 -25z m45 15 c4 -6 1 -9 -6 -8 -6 2
-14 -3 -17 -11 -3 -10 0 -12 12 -8 9 4 16 2 16 -3 0 -13 -27 -13 -35 0 -4 6
-1 17 5 25 15 18 17 18 25 5z m325 -15 c0 -8 -9 -19 -20 -25 -18 -10 -20 -8
-19 17 1 17 3 21 6 11 2 -10 9 -18 15 -18 6 0 8 9 5 20 -3 11 -1 18 4 14 5 -3
9 -12 9 -19z m44 -16 c-7 -12 -34 -11 -34 1 0 5 7 7 16 3 14 -5 15 -3 5 18
-11 22 -11 23 3 5 9 -10 13 -23 10 -27z m116 10 c0 -10 -7 -19 -15 -19 -8 0
-15 5 -15 11 0 5 5 7 12 3 8 -5 9 0 6 14 -4 12 -2 20 3 16 5 -3 9 -14 9 -25z
m60 16 c0 -2 -9 -3 -19 -2 -11 0 -18 5 -15 9 4 6 34 0 34 -7z m486 -20 c-7
-19 -31 -15 -32 6 -1 9 1 10 3 2 8 -22 26 -14 20 8 -4 16 -3 19 5 11 6 -6 8
-18 4 -27z m486 10 c3 -13 1 -22 -3 -19 -9 5 -13 44 -5 44 2 0 6 -11 8 -25z
m30 0 c3 -13 1 -22 -3 -19 -9 5 -13 44 -5 44 2 0 6 -11 8 -25z m48 -6 c0 -10
-7 -19 -15 -19 -8 0 -15 5 -15 11 0 5 5 7 12 3 8 -5 9 0 6 14 -4 12 -2 20 3
16 5 -3 9 -14 9 -25z m49 3 c-1 -16 -2 -16 -6 0 -3 11 -11 15 -21 12 -14 -5
-14 -4 -2 4 18 13 30 6 29 -16z m111 -3 c0 -10 -7 -19 -15 -19 -8 0 -15 5 -15
11 0 5 5 7 12 3 8 -5 9 0 6 14 -4 12 -2 20 3 16 5 -3 9 -14 9 -25z m260 0 c0
-10 -7 -19 -15 -19 -8 0 -15 5 -15 11 0 5 5 7 12 3 8 -5 9 0 6 14 -4 12 -2 20
3 16 5 -3 9 -14 9 -25z m90 8 c0 -7 -4 -6 -10 3 -8 13 -10 13 -10 -2 0 -9 6
-19 13 -21 7 -3 5 -6 -5 -6 -18 -1 -25 28 -12 42 9 9 24 -1 24 -16z m-2290 -7
c0 -13 -6 -20 -17 -19 -11 0 -13 3 -5 6 6 2 12 11 12 19 0 8 2 14 5 14 3 0 5
-9 5 -20z m264 -4 c-6 -16 -24 -13 -24 5 0 6 5 7 10 4 6 -3 10 -1 10 6 0 7 2
10 5 7 3 -3 3 -13 -1 -22z m326 -6 c5 0 11 8 13 18 4 13 5 11 6 -5 1 -17 -5
-23 -19 -23 -14 0 -20 6 -19 23 1 16 2 18 6 5 2 -10 8 -18 13 -18z m221 16
c-9 -11 -9 -15 1 -19 8 -4 7 -6 -4 -6 -21 -1 -23 10 -6 27 17 17 23 15 9 -2z
m509 -6 c0 -21 -24 -28 -35 -10 -3 6 1 7 10 4 9 -4 15 -3 14 2 -2 13 0 24 6
24 3 0 5 -9 5 -20z m327 -12 c-3 -7 -5 -2 -5 12 0 14 2 19 5 13 2 -7 2 -19 0
-25z m30 0 c-3 -7 -5 -2 -5 12 0 14 2 19 5 13 2 -7 2 -19 0 -25z m687 -1 c7
-6 6 -7 -4 -4 -8 2 -16 12 -17 23 -2 13 -1 15 4 4 3 -8 11 -19 17 -23z m33 1
c-3 -7 -5 -2 -5 12 0 14 2 19 5 13 2 -7 2 -19 0 -25z m-2287 7 c0 -9 -9 -15
-22 -14 -17 1 -19 2 -5 6 9 2 17 9 17 14 0 5 2 9 5 9 3 0 5 -7 5 -15z m609
-17 c-5 -10 -12 -18 -15 -18 -3 0 -2 5 1 10 3 6 1 10 -4 10 -6 0 -11 4 -11 8
0 4 9 8 19 8 16 0 17 -4 10 -18z m51 6 c0 -2 -7 -4 -15 -4 -8 0 -15 4 -15 10
0 5 7 7 15 4 8 -4 15 -8 15 -10z m1100 7 c0 -6 -4 -13 -10 -16 -5 -3 -10 1
-10 9 0 9 5 16 10 16 6 0 10 -4 10 -9z m365 -1 c3 -5 -1 -10 -10 -10 -9 0 -13
5 -10 10 3 6 8 10 10 10 2 0 7 -4 10 -10z m-2288 -6 c-3 -3 -12 -4 -19 -1 -8
3 -5 6 6 6 11 1 17 -2 13 -5z m58 -168 c91 -38 90 -164 -2 -202 -70 -30 -148
23 -148 101 0 48 22 80 70 101 38 17 39 17 80 0z m-2138 -16 c4 -12 3 -13 -5
-1 -6 8 -20 12 -36 9 -14 -3 -23 -1 -20 4 9 14 57 5 61 -12z m98 -3 c-3 -6 5
-17 17 -22 13 -6 23 -17 23 -25 0 -17 -33 -26 -47 -12 -6 6 0 8 16 5 34 -7 34
14 1 27 -25 9 -31 21 -18 33 10 11 13 8 8 -6z m68 -27 c-3 -12 -8 -19 -11 -16
-5 6 5 36 12 36 2 0 2 -9 -1 -20z m34 -2 c-3 -8 -6 -5 -6 6 -1 11 2 17 5 13 3
-3 4 -12 1 -19z m95 -3 c-2 -14 -6 -25 -8 -25 -2 0 -4 11 -4 25 0 14 4 25 9
25 4 0 6 -11 3 -25z m41 5 c-3 -12 -8 -19 -11 -16 -5 6 5 36 12 36 2 0 2 -9
-1 -20z m105 -16 c-3 -14 -5 -12 -10 9 -3 19 -2 25 4 19 6 -6 8 -18 6 -28z
m-428 -9 c13 -18 13 -19 -1 -8 -8 7 -26 10 -40 7 l-24 -6 25 14 c14 8 25 14
25 14 1 -1 7 -10 15 -21z m355 -5 c-3 -5 -12 -10 -18 -10 -7 0 -6 4 3 10 19
12 23 12 15 0z m2055 -25 c0 -19 -4 -35 -10 -35 -5 0 -10 16 -10 35 0 19 5 35
10 35 6 0 10 -16 10 -35z m-90 -20 c0 -30 -3 -35 -22 -34 -22 0 -22 1 -3 9 16
7 17 9 3 9 -37 2 -35 51 2 51 16 0 20 -6 20 -35z m58 7 c3 -16 -2 -22 -17 -22
-24 0 -35 15 -27 36 9 23 40 13 44 -14z m49 -9 c-3 -10 -5 -4 -5 12 0 17 2 24
5 18 2 -7 2 -21 0 -30z m62 10 c-2 -24 -2 -25 -6 -5 -2 12 -8 22 -13 22 -5 0
-11 -10 -13 -22 -4 -20 -4 -19 -6 5 -1 21 4 27 19 27 15 0 20 -6 19 -27z m61
-8 c0 -30 -3 -35 -22 -34 -22 0 -22 1 -3 9 16 7 17 9 3 9 -33 2 -30 51 3 51
15 0 19 -7 19 -35z m60 20 c0 -8 -8 -15 -17 -16 -15 0 -15 -2 2 -9 19 -8 19
-9 -2 -9 -22 -1 -33 15 -25 37 6 17 42 15 42 -3z m32 -10 c-2 -14 -8 -25 -13
-25 -5 0 -9 11 -9 25 0 14 6 25 14 25 9 0 12 -8 8 -25z m1718 11 c0 -3 -4 -8
-10 -11 -5 -3 -10 -1 -10 4 0 6 5 11 10 11 6 0 10 -2 10 -4z m40 0 c0 -3 -4
-8 -10 -11 -5 -3 -10 -1 -10 4 0 6 5 11 10 11 6 0 10 -2 10 -4z m40 0 c0 -11
-19 -15 -25 -6 -3 5 1 10 9 10 9 0 16 -2 16 -4z m600 -45 c0 -22 -4 -43 -10
-46 -6 -4 -10 8 -10 30 0 22 -4 34 -10 30 -5 -3 -10 -2 -10 4 0 9 15 18 33 20
4 1 7 -17 7 -38z m100 23 c19 -21 1 -69 -25 -69 -26 0 -44 48 -25 69 7 9 18
16 25 16 7 0 18 -7 25 -16z m75 -29 c0 -36 -3 -40 -24 -40 -13 0 -26 5 -28 11
-2 7 6 10 24 7 27 -4 27 -4 9 11 -11 9 -14 16 -8 16 7 0 12 7 12 16 0 11 -6
14 -21 9 -15 -5 -19 -4 -14 5 4 6 17 10 28 8 18 -2 22 -10 22 -43z m77 10 c4
-39 -5 -65 -16 -46 -4 6 -16 11 -27 11 -24 0 -24 5 2 41 27 38 36 37 41 -6z
m356 -12 c-1 -45 -2 -46 -5 -10 -3 30 -8 37 -20 33 -13 -5 -14 -4 -3 9 22 26
30 17 28 -32z m79 32 c3 -9 -3 -25 -12 -35 -16 -18 -17 -20 -2 -20 10 0 17 -4
17 -10 0 -5 -13 -10 -30 -10 -35 0 -38 10 -10 35 20 18 27 45 12 45 -4 0 -13
-5 -20 -12 -7 -7 -12 -8 -12 -2 0 27 47 34 57 9z m43 -15 c4 0 10 7 14 15 3 8
10 15 16 15 6 0 5 -7 -2 -20 -10 -16 -10 -24 0 -41 16 -25 10 -36 -8 -14 -16
20 -27 19 -33 -2 -3 -10 -5 5 -5 32 0 28 2 42 5 33 2 -10 8 -18 13 -18z m397
-13 c0 -21 -3 -40 -8 -43 -5 -3 -9 11 -9 31 0 22 -4 34 -10 30 -11 -7 -14 8
-3 19 15 14 28 -2 30 -37z m103 31 c-1 -7 -10 -29 -21 -48 -19 -32 -21 -19 -4
23 5 12 2 17 -9 17 -9 0 -16 5 -16 10 0 6 11 10 25 10 14 0 25 -6 25 -12z m70
2 c0 -5 -10 -10 -22 -11 l-23 0 21 -9 c12 -5 25 -14 29 -20 10 -16 -20 -44
-39 -37 -24 9 -19 26 5 20 16 -4 20 -2 17 8 -3 8 -12 13 -22 11 -11 -2 -16 4
-16 23 0 20 5 25 25 25 14 0 25 -4 25 -10z m76 -2 c5 -7 2 -9 -9 -5 -8 3 -20
0 -26 -7 -8 -9 -5 -12 12 -12 16 1 23 -6 25 -22 4 -27 -22 -40 -43 -22 -15 13
-21 61 -8 73 10 11 41 8 49 -5z m-1346 -73 c0 -8 -4 -15 -10 -15 -5 0 -7 7 -4
15 4 8 8 15 10 15 2 0 4 -7 4 -15z m1126 -11 c-4 -9 -9 -15 -11 -12 -3 3 -3
13 1 22 4 9 9 15 11 12 3 -3 3 -13 -1 -22z m-1118 -67 c2 -10 -4 -20 -15 -24
-10 -4 -21 -11 -25 -17 -4 -6 -8 6 -8 27 0 34 3 38 22 35 13 -2 24 -11 26 -21z
m447 11 c-16 -9 -16 -12 -4 -17 13 -5 12 -9 -3 -23 -17 -17 -18 -17 -18 10 0
33 7 42 29 42 13 -1 12 -3 -4 -12z m102 -40 c-2 -13 -4 -5 -4 17 -1 22 1 32 4
23 2 -10 2 -28 0 -40z m20 0 c-2 -13 -4 -5 -4 17 -1 22 1 32 4 23 2 -10 2 -28
0 -40z m451 45 c-10 -2 -18 -9 -18 -14 0 -5 8 -10 18 -10 15 -1 15 -2 0 -6 -9
-2 -19 -12 -21 -21 -3 -9 -5 0 -6 21 -1 32 2 37 22 36 16 -1 18 -2 5 -6z m89
-45 c-2 -13 -4 -5 -4 17 -1 22 1 32 4 23 2 -10 2 -28 0 -40z m20 0 c-2 -13 -4
-5 -4 17 -1 22 1 32 4 23 2 -10 2 -28 0 -40z m-992 7 c0 -14 -3 -25 -7 -25 -4
0 -8 14 -8 32 0 36 13 30 15 -7z m-81 9 c8 -21 -1 -34 -25 -34 -12 0 -19 7
-19 18 0 34 33 45 44 16z m38 7 c-11 -7 -10 -9 3 -15 20 -7 10 -26 -13 -26
-15 0 -15 2 -2 10 10 6 11 10 3 10 -7 0 -13 7 -13 15 0 8 8 15 18 15 13 0 14
-2 4 -9z m80 0 c-11 -7 -11 -9 2 -14 24 -9 19 -27 -6 -26 -21 0 -21 1 -4 8 18
7 18 8 3 14 -22 8 -22 27 1 27 13 0 14 -2 4 -9z m351 -3 c7 -21 -4 -38 -24
-38 -14 0 -19 7 -19 25 0 18 5 25 19 25 11 0 21 -6 24 -12z m105 -11 c4 -20
-25 -34 -40 -19 -15 15 -1 44 19 40 10 -2 19 -11 21 -21z m31 6 c1 9 6 17 11
17 14 0 12 -19 -4 -35 -12 -12 -15 -12 -20 1 -9 24 -6 41 4 19 7 -17 9 -17 9
-2z m30 -27 c-9 -8 -10 -7 -5 7 3 10 7 24 7 30 1 7 3 4 6 -7 3 -10 -1 -23 -8
-30z m61 29 c0 -8 -8 -15 -17 -16 -15 0 -15 -2 2 -9 16 -7 17 -9 3 -9 -21 -1
-32 15 -24 34 7 20 36 19 36 0z m32 -10 c-2 -14 -6 -25 -8 -25 -2 0 -4 11 -4
25 0 14 4 25 9 25 4 0 6 -11 3 -25z m44 16 c-18 -7 -18 -8 -3 -14 25 -9 21
-27 -5 -26 -21 0 -21 1 -4 8 18 7 18 8 2 14 -21 8 -12 27 12 26 14 0 14 -2 -2
-8z m262 -14 c4 -20 -25 -34 -40 -19 -15 15 -1 44 19 40 10 -2 19 -11 21 -21z
m100 -5 c3 -16 -2 -22 -16 -22 -22 0 -32 17 -24 38 7 20 37 9 40 -16z m42 -2
c-6 -12 -14 -20 -17 -17 -2 3 1 14 8 26 17 26 24 19 9 -9z m33 2 c-3 -12 -9
-22 -14 -22 -12 0 -11 7 3 30 15 24 19 21 11 -8z m24 -9 c-3 -10 -5 -4 -5 12
0 17 2 24 5 18 2 -7 2 -21 0 -30z m52 10 c-2 -24 -2 -25 -6 -5 -2 12 -8 22
-13 22 -5 0 -11 -10 -13 -22 -4 -20 -4 -19 -6 5 -1 21 4 27 19 27 15 0 20 -6
19 -27z m61 -8 c0 -30 -3 -35 -22 -34 -22 0 -22 1 -3 9 16 7 17 9 3 9 -33 2
-30 51 3 51 15 0 19 -7 19 -35z m-1952 -562 l-3 -568 -35 -6 -35 -6 33 -2 32
-1 0 -159 0 -159 -27 -6 c-16 -5 -29 -3 -34 5 -4 6 -16 9 -28 6 -12 -3 -19 -1
-15 4 3 5 -2 9 -11 9 -9 0 -13 -4 -10 -10 3 -5 0 -7 -8 -4 -8 3 -18 1 -21 -5
-4 -5 18 -15 51 -21 32 -7 69 -19 83 -26 l25 -14 -30 6 c-121 23 -204 62 -162
77 9 3 9 9 0 25 -11 19 -10 21 12 24 l25 3 -23 28 c-21 26 -28 28 -172 42 -82
8 -199 19 -260 25 -111 11 -332 47 -348 57 -24 15 24 27 140 35 70 4 162 12
203 17 41 5 128 8 193 6 112 -3 138 3 100 21 -29 14 -594 12 -618 -3 -11 -7
-37 -10 -57 -8 -21 1 -38 -1 -38 -5 0 -4 -9 -10 -20 -13 -11 -3 -20 -1 -20 4
0 5 -5 9 -11 9 -5 0 -8 -3 -5 -8 2 -4 -14 -8 -37 -8 -56 -1 -168 -12 -173 -17
-3 -2 31 -10 73 -17 43 -7 86 -17 95 -22 10 -4 34 -10 55 -12 21 -2 55 -11 77
-20 21 -9 53 -16 70 -16 17 0 41 -3 53 -6 20 -6 21 -8 7 -21 -10 -10 -25 -13
-44 -9 -17 3 -30 1 -30 -4 0 -6 -24 -10 -52 -10 -29 -1 -71 -7 -93 -15 -22 -8
-62 -15 -88 -15 -36 0 -46 -3 -41 -12 4 -7 4 -10 -1 -6 -4 4 -14 3 -22 -4 -11
-9 -12 -7 -7 7 6 15 3 16 -27 10 -63 -12 -68 -15 -62 -33 5 -14 3 -15 -8 -4
-14 13 -33 17 -26 5 3 -5 -25 -9 -61 -10 -35 -1 -70 -7 -76 -14 -8 -9 -8 -10
2 -5 14 8 16 -3 2 -24 -5 -8 -12 -11 -16 -8 -4 4 -16 1 -28 -7 -11 -8 -32 -15
-46 -15 -14 0 -32 -5 -40 -11 -13 -9 -12 -10 3 -5 9 3 17 1 17 -3 0 -5 -24
-12 -52 -16 -61 -8 -91 -25 -62 -35 16 -6 15 -9 -7 -31 -21 -21 -24 -22 -27
-6 -4 18 -27 23 -37 8 -3 -5 3 -11 12 -14 17 -4 17 -4 -1 -12 -11 -5 -26 -4
-36 2 -9 6 -29 8 -45 5 -20 -3 -32 0 -42 13 -10 15 -31 20 -98 24 -57 4 -89
11 -94 20 -11 18 -77 41 -118 41 -17 0 -35 4 -38 10 -3 6 1 7 9 4 9 -3 16 -2
16 4 0 5 -10 12 -22 15 -19 5 -20 8 -7 23 13 16 10 17 -38 10 -31 -4 -53 -3
-53 2 0 5 -13 15 -30 22 -16 7 -27 16 -24 21 3 5 -1 9 -8 9 -8 1 -5 7 7 16 19
15 18 16 -16 12 -25 -3 -36 0 -36 10 0 11 10 13 39 8 53 -8 117 -14 95 -9 -23
6 -58 39 -49 47 3 3 0 6 -7 6 -8 0 -11 -8 -8 -20 6 -23 -6 -26 -25 -6 -8 8
-26 11 -46 8 -46 -6 -41 16 6 24 51 9 58 15 37 30 -17 12 -17 14 -1 20 12 5
14 10 6 19 -12 14 6 25 42 25 10 0 25 6 33 13 9 9 55 17 132 22 65 4 132 9
148 10 33 4 98 5 130 4 22 -1 137 9 145 13 3 1 168 2 367 2 276 1 365 4 374
14 9 8 47 12 114 13 55 0 118 4 140 8 l40 8 -60 6 c-130 15 -150 21 -150 42 0
16 -8 21 -45 25 -25 3 -56 13 -70 23 -13 9 -29 17 -35 17 -5 -1 1 -7 15 -15
32 -18 19 -19 -23 -1 -18 7 -59 16 -92 21 -33 4 -64 10 -70 13 -5 4 -32 7 -60
8 -61 1 -120 11 -160 29 -74 32 -90 41 -97 50 -5 6 -8 4 -8 -5 0 -12 -3 -12
-16 2 -12 12 -23 14 -39 8 -16 -6 -26 -4 -38 11 -9 10 -26 19 -37 19 -11 0
-23 6 -26 14 -3 8 -28 17 -62 21 -70 9 -161 36 -248 75 -36 17 -73 30 -81 30
-15 0 -272 85 -400 132 l-53 19 0 280 0 279 1305 0 1305 0 -2 -567z m-4518
516 c0 -5 -8 -13 -17 -16 -10 -4 -21 -11 -25 -17 -4 -6 -8 3 -8 20 0 17 3 34
6 37 9 8 44 -11 44 -24z m625 -8 c0 -16 -3 -27 -7 -24 -13 7 -7 53 6 53 1 0 1
-13 1 -29z m332 -18 c-3 -10 -5 -2 -5 17 0 19 2 27 5 18 2 -10 2 -26 0 -35z
m-924 25 c-6 -7 -13 -20 -16 -28 -3 -9 -6 -3 -6 13 -1 19 4 27 15 27 12 0 14
-4 7 -12z m24 -25 c-3 -10 -5 -4 -5 12 0 17 2 24 5 18 2 -7 2 -21 0 -30z m90
7 l3 -25 -12 25 c-11 25 -11 25 -15 3 -3 -13 -9 -23 -14 -23 -5 0 -10 10 -10
23 l-2 22 -4 -22 c-5 -27 -23 -31 -23 -5 0 26 9 32 44 29 25 -2 31 -7 33 -27z
m53 3 c0 -21 -3 -24 -9 -13 -6 8 -7 18 -4 24 4 5 -1 7 -11 3 -10 -4 -15 -3
-11 3 13 21 35 10 35 -17z m43 15 c-6 -7 -13 -20 -16 -28 -3 -9 -6 -3 -6 13
-1 19 4 27 15 27 12 0 14 -4 7 -12z m38 -18 c5 0 9 8 10 18 0 9 3 12 5 6 6
-14 -13 -64 -23 -64 -5 0 -9 17 -9 38 -1 20 0 29 3 20 2 -10 9 -18 14 -18z
m497 -6 c-3 -14 -5 -12 -10 9 -3 19 -2 25 4 19 6 -6 8 -18 6 -28z m34 9 c-3
-16 -7 -22 -10 -15 -4 13 4 42 11 42 2 0 2 -12 -1 -27z m116 -9 c-3 -14 -5
-12 -10 9 -3 19 -2 25 4 19 6 -6 8 -18 6 -28z m-241 -6 c-3 -7 -5 -2 -5 12 0
14 2 19 5 13 2 -7 2 -19 0 -25z m60 0 c-3 -7 -5 -2 -5 12 0 14 2 19 5 13 2 -7
2 -19 0 -25z m-567 -9 c0 -6 -4 -7 -10 -4 -5 3 -10 11 -10 16 0 6 5 7 10 4 6
-3 10 -11 10 -16z m-20 -209 c40 -11 104 -71 119 -113 14 -37 14 -123 0 -150
-6 -12 -21 -32 -32 -45 l-21 -22 -12 29 c-12 28 -79 80 -106 82 -7 0 -4 4 7 9
16 7 17 9 3 9 -9 1 -20 -4 -24 -10 -4 -8 -9 -7 -15 2 -6 10 -9 10 -9 2 0 -6
10 -19 22 -27 20 -15 21 -16 5 -34 -9 -10 -17 -27 -18 -38 0 -18 -1 -18 -9 1
-4 11 -6 31 -3 45 l6 25 -27 -24 c-19 -18 -26 -34 -26 -63 0 -21 -3 -38 -6
-38 -19 0 -67 47 -86 83 -79 156 62 324 232 277z m533 -113 c25 -9 17 -41 -11
-45 -19 -3 -22 1 -22 35 0 21 4 33 8 27 4 -6 15 -13 25 -17z m277 13 c0 -5 7
-10 15 -10 10 0 15 -9 14 -27 -2 -24 -2 -25 -6 -5 -5 27 -23 29 -23 2 0 -11
-4 -20 -10 -20 -5 0 -10 16 -10 35 0 19 5 35 10 35 6 0 10 -4 10 -10z m77 -42
c-2 -13 -4 -5 -4 17 -1 22 1 32 4 23 2 -10 2 -28 0 -40z m30 0 c-2 -13 -4 -5
-4 17 -1 22 1 32 4 23 2 -10 2 -28 0 -40z m3630 5 c-3 -10 -5 -2 -5 17 0 19 2
27 5 18 2 -10 2 -26 0 -35z m61 30 c2 -7 -3 -13 -12 -13 -9 0 -16 -5 -16 -12
0 -8 -3 -9 -10 -2 -15 15 -1 46 18 42 8 -2 17 -9 20 -15z m35 5 c-6 -7 -13
-20 -16 -28 -3 -9 -6 -3 -6 13 -1 19 4 27 15 27 12 0 14 -4 7 -12z m-4333 -25
c0 -15 2 -14 16 3 14 18 15 18 8 -6 -8 -30 -33 -61 -32 -39 2 34 -3 49 -16 49
-8 0 -17 -10 -19 -22 -4 -20 -4 -19 -6 5 -1 23 3 27 24 27 17 0 25 -6 25 -17z
m80 -8 c0 -18 -5 -25 -20 -25 -25 0 -27 30 -2 31 14 0 14 2 -3 9 -19 8 -19 9
3 9 17 1 22 -5 22 -24z m59 -2 c-2 -24 -2 -25 -6 -5 -5 28 -23 29 -23 1 0 -11
-4 -17 -10 -14 -5 3 -10 15 -10 26 0 14 7 19 25 19 21 0 25 -4 24 -27z m189 4
c-4 -29 -34 -34 -43 -8 -8 28 -23 27 -28 -1 -4 -21 -4 -20 -6 3 -1 25 2 27 40
27 36 1 40 -2 37 -21z m42 -13 c0 -24 -17 -15 -22 11 -4 20 -3 23 8 14 8 -6
14 -18 14 -25z m20 24 c0 -9 4 -8 10 2 9 13 10 13 10 0 0 -8 -4 -21 -9 -29 -7
-11 -11 -10 -20 7 -14 26 -14 32 -1 32 6 0 10 -6 10 -12z m79 -15 c-2 -24 -2
-25 -6 -5 -5 27 -23 29 -23 2 0 -11 -4 -20 -10 -20 -5 0 -10 11 -10 25 0 20 5
25 25 25 21 0 25 -4 24 -27z m91 0 c0 -14 -3 -23 -7 -19 -10 10 -11 46 -1 46
4 0 8 -12 8 -27z m4081 -80 c12 -16 12 -17 -1 -7 -8 6 -22 14 -30 17 -13 5
-12 6 1 6 9 1 23 -7 30 -16z m-4664 -11 c-16 -3 -15 -5 4 -21 13 -10 19 -23
15 -29 -9 -15 -33 -16 -41 -2 -3 5 0 7 8 4 8 -3 18 -1 22 5 3 6 -1 11 -10 11
-8 0 -18 7 -22 16 -7 18 15 36 32 26 6 -4 3 -8 -8 -10z m386 -5 c11 -4 17 -16
16 -34 0 -15 -3 -21 -6 -13 -2 8 -7 22 -9 30 -4 12 -6 12 -14 0 -5 -8 -6 -18
-4 -22 3 -4 0 -8 -5 -8 -6 0 -11 17 -11 38 0 20 4 32 8 26 4 -6 15 -13 25 -17z
m4166 -9 c-1 -31 -1 -31 -8 -8 -5 14 -6 28 -4 33 9 15 13 6 12 -25z m52 5
c-12 -20 -14 -14 -5 12 4 9 9 14 11 11 3 -2 0 -13 -6 -23z m228 -5 c-1 -31 -1
-31 -8 -8 -5 14 -6 28 -4 33 9 15 13 6 12 -25z m-4663 -19 c1 -16 -2 -26 -7
-23 -5 3 -9 19 -9 36 0 39 14 28 16 -13z m328 1 c1 -16 -2 -30 -5 -30 -9 0
-19 53 -12 63 8 14 16 -1 17 -33z m3793 -7 c-3 -10 -5 -2 -5 17 0 19 2 27 5
18 2 -10 2 -26 0 -35z m61 11 c-3 -14 -5 -12 -10 9 -3 19 -2 25 4 19 6 -6 8
-18 6 -28z m52 21 c0 -8 -8 -15 -17 -16 -15 0 -15 -2 2 -9 16 -7 17 -9 3 -9
-21 -1 -32 15 -24 34 7 20 36 19 36 0z m32 -10 c-2 -14 -6 -25 -8 -25 -2 0 -4
11 -4 25 0 14 4 25 9 25 4 0 6 -11 3 -25z m88 0 c0 -18 -5 -25 -20 -25 -24 0
-26 18 -3 27 15 6 15 7 -3 14 -17 7 -17 8 4 8 17 1 22 -5 22 -24z m126 10 c4
-8 10 -12 15 -9 5 3 9 0 9 -5 0 -6 -7 -11 -15 -11 -8 0 -15 6 -15 14 0 8 -6
17 -12 19 -10 4 -10 6 0 6 7 1 15 -6 18 -14z m103 -12 c-2 -24 -2 -25 -6 -5
-2 12 -8 22 -13 22 -5 0 -11 -10 -13 -22 -4 -20 -4 -19 -6 5 -1 21 4 27 19 27
15 0 20 -6 19 -27z m37 18 c-18 -7 -18 -8 -3 -14 22 -8 22 -27 0 -27 -14 0
-15 2 -5 9 11 7 10 9 -3 15 -20 7 -10 26 13 25 14 0 14 -2 -2 -8z m102 -19 c3
-17 -2 -22 -17 -22 -25 0 -29 30 -3 31 15 0 14 2 -3 10 l-20 9 20 -3 c12 -1
21 -11 23 -25z m60 -4 c-2 -24 -8 -34 -23 -35 l-20 -3 20 9 c16 8 17 10 3 10
-37 2 -35 51 2 51 18 0 21 -5 18 -32z m24 7 c-2 -14 -6 -25 -8 -25 -2 0 -4 11
-4 25 0 14 4 25 9 25 4 0 6 -11 3 -25z m66 -3 c3 -16 -2 -22 -17 -22 -29 0
-37 20 -10 27 22 6 22 7 3 15 -18 8 -18 8 1 5 12 -1 21 -11 23 -25z m81 1 c-2
-24 -2 -25 -6 -5 -2 12 -9 22 -14 22 -5 0 -10 -10 -10 -22 l-2 -23 -4 23 c-2
12 -8 22 -13 22 -5 0 -11 -10 -13 -22 -4 -20 -4 -19 -6 5 -1 25 2 27 34 27 32
0 35 -2 34 -27z m-5049 2 c10 -13 9 -15 -9 -15 -13 0 -19 -4 -16 -10 4 -6 12
-7 18 -4 9 5 9 4 0 -6 -14 -15 -33 -5 -33 19 0 32 20 40 40 16z m27 -32 c-3
-10 -5 -2 -5 17 0 19 2 27 5 18 2 -10 2 -26 0 -35z m31 6 c-3 -20 -5 -19 -9 9
-3 20 -2 29 4 23 5 -5 7 -19 5 -32z m119 5 c2 -24 1 -26 -6 -9 -5 11 -6 24 -3
29 3 5 -2 6 -12 3 -11 -4 -15 -3 -11 4 12 18 30 3 32 -27z m88 6 c0 -16 -6
-25 -15 -25 -8 0 -18 -4 -22 -10 -4 -5 -8 6 -8 26 0 31 3 36 23 35 17 -1 22
-7 22 -26z m123 6 c2 -10 -1 -23 -7 -29 -15 -15 -46 16 -37 38 8 21 40 15 44
-9z m92 14 c11 -7 12 -14 4 -27 -15 -24 -33 -28 -40 -9 -7 18 1 46 13 46 4 0
15 -5 23 -10z m-326 -36 c3 -8 2 -12 -4 -9 -6 3 -10 10 -10 16 0 14 7 11 14
-7z m4114 -82 c9 -27 8 -29 -14 -24 -13 2 -24 8 -24 13 0 5 7 6 15 3 8 -4 15
-1 15 5 0 6 -4 11 -10 11 -5 0 -10 5 -10 10 0 21 18 9 28 -18z m130 17 c12 0
10 -3 -5 -9 -13 -5 -23 -14 -23 -20 0 -5 -11 -10 -25 -10 -14 0 -25 5 -25 11
0 17 33 39 48 34 8 -3 21 -5 30 -6z m-4730 -180 c64 -32 125 -133 92 -154 -25
-15 -50 8 -71 66 -26 71 -57 97 -96 83 -32 -11 -59 -49 -68 -94 -9 -41 5 -33
21 13 14 40 37 55 58 38 28 -23 19 -41 -19 -41 -19 0 -35 -5 -35 -11 0 -6 9
-9 20 -6 15 4 20 0 20 -13 0 -11 -5 -22 -11 -26 -6 -3 -8 -15 -5 -27 3 -11 1
-16 -4 -11 -4 5 -10 18 -13 29 -5 19 -5 19 -12 -2 -8 -26 -16 -28 -33 -11 -9
9 -13 4 -18 -20 -4 -18 -11 -32 -16 -32 -6 0 -8 -7 -5 -15 4 -8 2 -17 -3 -20
-6 -4 -10 5 -10 19 0 14 5 26 11 26 8 0 8 5 -1 15 -16 19 -57 21 -43 3 7 -9 4
-18 -8 -30 -18 -17 -19 -17 -25 8 -4 14 -4 47 -2 74 12 126 155 197 276 139z
m4900 -76 c-10 -2 -18 -9 -18 -14 0 -5 8 -10 18 -10 16 -1 16 -2 0 -6 -10 -2
-18 -8 -18 -13 0 -5 8 -11 18 -13 13 -4 11 -5 -5 -6 -20 -1 -23 4 -23 34 0 30
3 35 23 34 16 -1 18 -2 5 -6z m82 -28 c0 -31 -3 -35 -25 -35 -20 0 -25 5 -25
25 0 16 6 25 15 25 8 0 15 5 15 10 0 6 5 10 10 10 6 0 10 -16 10 -35z m148 12
c2 -10 -4 -20 -15 -24 -10 -4 -21 -11 -25 -17 -4 -6 -8 6 -8 27 0 34 3 38 22
35 13 -2 24 -11 26 -21z m132 -12 c0 -19 -4 -35 -10 -35 -11 0 -14 53 -3 63
11 12 13 8 13 -28z m57 0 c-3 -46 -17 -46 -17 0 0 19 4 35 9 35 5 0 9 -16 8
-35z m-4980 -22 c-3 -10 -5 -2 -5 17 0 19 2 27 5 18 2 -10 2 -26 0 -35z m123
17 c0 -16 -4 -30 -10 -30 -5 0 -10 14 -10 30 0 17 5 30 10 30 6 0 10 -13 10
-30z m4575 -5 c0 -14 -2 -25 -6 -25 -8 0 -18 48 -11 55 9 8 15 -4 17 -30z
m-4767 -2 c2 -12 -4 -23 -14 -27 -20 -8 -41 8 -25 18 6 4 11 2 11 -4 0 -6 4
-9 10 -5 5 3 7 12 4 20 -4 8 -11 12 -17 8 -6 -3 -7 -1 -3 6 11 17 30 8 34 -16z
m102 -18 c-13 -12 -15 -11 -15 15 0 26 2 28 15 15 13 -13 13 -17 0 -30z m58
20 c2 -10 -2 -21 -10 -26 -20 -13 -28 -11 -28 9 0 14 2 15 10 2 8 -12 10 -10
10 8 0 15 -4 21 -12 16 -7 -4 -8 -3 -4 5 10 16 30 8 34 -14z m62 -5 c0 -10 -4
-21 -8 -24 -5 -3 -9 8 -9 24 0 16 4 27 9 24 4 -3 8 -14 8 -24z m58 4 c2 -13
-4 -24 -14 -28 -19 -7 -42 9 -30 21 4 4 11 1 16 -7 8 -12 10 -10 10 8 0 13 -4
20 -10 17 -5 -3 -10 -1 -10 5 0 20 35 5 38 -16z m33 -4 c5 0 9 5 9 12 0 6 2 9
5 6 3 -3 0 -18 -6 -34 l-12 -29 -7 25 c-5 14 -8 32 -8 40 0 10 2 9 5 -2 2 -10
9 -18 14 -18z m69 15 c9 -10 9 -15 1 -15 -6 0 -11 6 -11 13 0 8 -3 7 -9 -3
-12 -17 -4 -33 12 -24 9 5 9 4 0 -6 -14 -15 -33 -5 -33 19 0 32 20 40 40 16z
m55 -14 c-3 -12 -10 -21 -15 -21 -10 0 -22 31 -15 38 3 3 5 0 5 -6 0 -7 5 -12
10 -12 6 0 10 8 10 17 0 9 3 14 6 10 3 -3 3 -15 -1 -26z m52 -2 c1 -24 1 -24
-4 -1 -3 16 -10 22 -19 18 -9 -3 -12 -1 -9 5 11 17 30 4 32 -22z m4240 -6 c-3
-10 -5 -4 -5 12 0 17 2 24 5 18 2 -7 2 -21 0 -30z m166 17 c-8 -31 -23 -34
-23 -6 0 16 6 26 14 26 9 0 12 -7 9 -20z m65 -3 c4 -20 -25 -34 -40 -19 -15
15 -1 44 19 40 10 -2 19 -11 21 -21z m59 -14 c-3 -10 -5 -4 -5 12 0 17 2 24 5
18 2 -7 2 -21 0 -30z m83 22 c0 -8 -8 -15 -17 -16 -15 0 -15 -2 2 -9 19 -8 19
-9 -2 -9 -18 -1 -23 5 -23 24 0 18 5 25 20 25 11 0 20 -7 20 -15z m-5410 -25
c0 -5 -4 -10 -9 -10 -6 0 -13 5 -16 10 -3 6 1 10 9 10 9 0 16 -4 16 -10z m774
-6 c3 -8 2 -12 -4 -9 -6 3 -10 10 -10 16 0 14 7 11 14 -7z m-421 -21 c-7 -2
-19 -2 -25 0 -7 3 -2 5 12 5 14 0 19 -2 13 -5z m-574 -142 c27 -38 92 -76 145
-86 21 -3 36 -8 33 -11 -2 -2 -27 0 -54 6 -84 18 -174 115 -172 185 0 11 6 1
13 -22 8 -22 23 -55 35 -72z m714 76 c17 -6 25 -47 8 -47 -5 0 -8 7 -7 16 2
26 -22 28 -27 2 -3 -14 -5 -7 -5 17 -1 22 2 35 6 29 4 -6 15 -13 25 -17z m120
0 c10 -4 16 -16 16 -29 l-2 -23 -4 23 c-2 12 -9 22 -14 22 -5 0 -14 -10 -19
-22 -7 -20 -9 -17 -9 17 0 22 3 35 7 29 4 -6 15 -13 25 -17z m180 0 c10 -4 16
-16 16 -29 l-2 -23 -4 23 c-5 27 -23 29 -23 2 0 -11 -4 -20 -10 -20 -5 0 -10
17 -10 38 0 20 4 32 8 26 4 -6 15 -13 25 -17z m274 -14 c-3 -10 -5 -4 -5 12 0
17 2 24 5 18 2 -7 2 -21 0 -30z m30 0 c-3 -10 -5 -4 -5 12 0 17 2 24 5 18 2
-7 2 -21 0 -30z m-532 -8 c0 -14 -2 -25 -6 -25 -8 0 -18 48 -11 55 9 8 15 -4
17 -30z m153 5 c-1 -16 -5 -27 -10 -24 -11 7 -10 54 1 54 5 0 9 -13 9 -30z
m-428 -23 c0 -16 -18 3 -23 25 -6 22 -5 22 8 4 8 -11 15 -24 15 -29z m20 28
c0 -8 -4 -15 -10 -15 -5 0 -10 7 -10 15 0 8 5 15 10 15 6 0 10 -7 10 -15z m9
-29 c-9 -8 -10 -7 -5 7 3 10 7 24 7 30 1 7 3 4 6 -7 3 -10 -1 -23 -8 -30z m69
16 c3 -16 -2 -22 -17 -22 -24 0 -35 15 -27 36 9 23 40 13 44 -14z m52 3 c0
-18 -5 -25 -20 -25 -24 0 -27 18 -4 27 13 5 13 7 2 14 -10 7 -9 9 5 9 12 0 17
-8 17 -25z m244 9 c10 -27 7 -34 -19 -34 -28 0 -34 17 -9 27 13 5 13 7 2 14
-10 7 -9 9 3 9 9 0 20 -7 23 -16z m184 -12 c3 -16 -2 -22 -17 -22 -24 0 -35
15 -27 36 9 23 40 13 44 -14z m37 -12 c7 0 16 10 18 23 4 18 4 17 6 -6 1 -24
-2 -28 -21 -25 -15 2 -23 10 -24 23 -1 15 0 16 3 3 3 -10 11 -18 18 -18z m61
31 c-18 -7 -18 -8 -3 -14 25 -9 21 -27 -5 -26 -21 0 -21 1 -4 8 18 7 18 8 2
14 -21 8 -12 27 12 26 14 0 14 -2 -2 -8z m72 -8 c2 -7 -5 -13 -15 -14 -16 0
-16 -1 2 -9 19 -8 19 -9 -2 -9 -22 -1 -33 15 -25 37 6 16 34 12 40 -5z m3818
-164 c28 -26 31 -44 8 -53 -27 -10 -34 -7 -31 15 1 12 -4 24 -10 26 -8 3 -13
-4 -13 -16 0 -14 -6 -19 -20 -18 -11 1 -20 7 -20 14 0 18 -27 16 -34 -2 -3 -9
1 -18 9 -21 19 -8 19 -41 1 -51 -8 -4 -14 -15 -14 -23 4 -58 -3 -79 -24 -82
-20 -3 -23 -10 -26 -60 -2 -32 -5 -58 -8 -58 -16 0 -54 35 -50 46 3 8 1 14 -5
14 -6 0 -8 7 -5 16 4 10 -4 28 -20 47 -22 26 -25 38 -21 74 6 59 49 120 100
144 57 27 148 21 183 -12z m1163 -2 c51 -34 81 -91 81 -155 l0 -49 -113 -5
c-121 -6 -176 -20 -124 -33 15 -4 26 -9 23 -12 -7 -7 -88 18 -102 32 -8 7 -22
11 -32 8 -30 -7 -37 36 -9 47 l22 9 -22 0 c-62 2 10 139 92 177 47 22 135 13
184 -19z m451 -27 c0 -33 -4 -60 -10 -60 -6 0 -10 27 -10 60 0 33 4 60 10 60
6 0 10 -27 10 -60z m-6467 43 c-7 -2 -19 -2 -25 0 -7 3 -2 5 12 5 14 0 19 -2
13 -5z m5394 1 c-3 -3 -12 -4 -19 -1 -8 3 -5 6 6 6 11 1 17 -2 13 -5z m1043
-71 c0 -43 -5 -85 -10 -93 -7 -10 -10 14 -10 78 0 55 4 92 10 92 6 0 10 -32
10 -77z m-74 23 c-30 -30 -33 -39 -35 -102 -3 -94 -11 -95 -11 -1 0 71 2 77
31 106 17 17 34 31 39 31 5 0 -6 -15 -24 -34z m-856 -47 c0 -8 -40 -49 -49
-49 -4 0 -17 11 -29 25 -30 35 -55 34 -42 -1 9 -22 8 -25 -4 -21 -9 4 -18 2
-21 -3 -4 -6 -19 -10 -35 -10 -22 0 -29 -5 -32 -22 -2 -13 -10 -23 -19 -23 -9
0 -26 -7 -38 -15 -19 -13 -21 -19 -12 -43 7 -19 18 -27 35 -27 36 0 94 27 106
50 6 11 15 18 20 15 5 -3 16 5 24 17 9 12 16 16 16 9 0 -7 -11 -26 -25 -43
-14 -16 -25 -39 -25 -50 0 -12 -8 -22 -20 -25 -26 -7 -20 -27 8 -27 17 0 80
53 74 62 -1 1 -2 14 -2 28 l0 25 30 -18 c17 -9 30 -20 30 -23 -1 -13 -30 -41
-38 -36 -5 3 -14 -5 -20 -18 -14 -31 -80 -55 -93 -35 -8 12 -10 12 -18 0 -6
-9 -18 -11 -35 -7 -19 5 -26 13 -26 31 0 23 -7 29 -27 23 -5 -1 -7 -8 -5 -16
6 -28 -37 8 -62 51 -48 85 -45 137 8 137 24 0 38 7 53 28 19 26 23 27 108 25
80 -1 91 -4 107 -25 l18 -23 0 45 0 45 20 -25 c11 -14 20 -28 20 -31z m-570
-29 c12 -44 12 -56 0 -102 -22 -76 -102 -137 -182 -138 l-38 0 0 48 c1 37 3
43 11 30 24 -41 60 -7 52 49 -4 23 1 37 16 52 12 12 26 33 31 47 5 13 26 34
45 45 19 12 32 26 29 32 -3 7 2 3 10 -8 9 -10 21 -35 26 -55z m-4935 15 c81
-18 138 -101 133 -193 l-3 -57 -63 -3 -62 -3 2 57 c2 49 -1 59 -22 76 -16 13
-24 30 -24 51 -1 36 -22 43 -40 14 -9 -15 -7 -21 9 -33 20 -15 20 -15 1 -30
-11 -8 -23 -14 -27 -14 -11 0 -22 -39 -23 -80 -1 -34 -3 -35 -49 -44 -62 -12
-79 3 -79 71 1 59 12 89 47 131 32 38 57 53 105 63 35 7 41 6 95 -6z m6465
-19 c0 -3 -4 -8 -10 -11 -5 -3 -10 -1 -10 4 0 6 5 11 10 11 6 0 10 -2 10 -4z
m-1100 -56 c0 -10 -50 -63 -50 -52 0 4 -3 17 -6 29 -4 15 -1 22 13 26 31 8 43
7 43 -3z m1100 -14 c0 -8 -9 -14 -19 -13 -15 1 -17 4 -9 14 14 17 28 16 28 -1z
m-6040 -31 c0 -19 -4 -35 -9 -35 -5 0 -7 9 -4 20 4 14 0 20 -12 20 -12 0 -16
-6 -12 -20 3 -11 1 -18 -4 -14 -16 10 -9 36 11 41 11 3 20 9 20 14 0 5 2 9 5
9 3 0 5 -16 5 -35z m2734 -4 c-2 -3 -12 3 -22 13 -16 17 -16 18 5 5 12 -7 20
-15 17 -18z m-2797 3 c3 -8 1 -20 -5 -26 -8 -8 -9 -5 -6 10 4 14 0 22 -13 25
-17 4 -17 5 0 6 10 0 20 -6 24 -15z m110 -15 c1 -19 1 -20 -4 -4 -3 11 -10 24
-17 28 -7 6 -6 7 4 4 8 -2 16 -14 17 -28z m-143 -5 c3 -8 2 -12 -4 -9 -6 3
-10 10 -10 16 0 14 7 11 14 -7z m2606 6 c0 -5 -7 -7 -15 -4 -8 4 -15 8 -15 10
0 2 7 4 15 4 8 0 15 -4 15 -10z m3498 -15 c-1 -14 -6 -25 -10 -25 -4 0 -8 11
-8 25 0 14 4 25 10 25 5 0 9 -11 8 -25z m19 3 c-3 -8 -6 -5 -6 6 -1 11 2 17 5
13 3 -3 4 -12 1 -19z m-45 -80 c-9 -9 -42 -1 -42 12 0 4 12 5 26 2 15 -3 22
-8 16 -14z m-6585 -131 c33 -24 57 -32 110 -37 l68 -7 -56 -2 c-41 -1 -67 5
-100 22 -45 24 -109 97 -109 124 0 9 10 -3 23 -26 12 -24 41 -57 64 -74z m10
71 c-2 -7 0 -23 4 -35 8 -21 7 -22 -11 -11 -12 8 -15 15 -9 19 6 3 1 9 -10 12
-30 7 -26 27 5 27 16 0 24 -5 21 -12z m271 5 c-10 -2 -28 -2 -40 0 -13 2 -5 4
17 4 22 1 32 -1 23 -4z m-41 -50 c-14 -14 -19 -15 -29 -4 -11 10 -10 11 3 6
10 -4 20 -2 24 4 3 6 9 11 13 11 3 0 -1 -8 -11 -17z m-42 -184 c5 -5 1 -9 -13
-9 -12 0 -22 -6 -22 -12 -1 -8 -6 -6 -14 5 -17 22 -38 22 -34 0 2 -11 -9 -23
-32 -34 -19 -9 -38 -15 -42 -13 -4 2 -9 0 -13 -6 -3 -5 -12 -10 -18 -10 -7 0
-4 7 6 14 9 7 17 18 17 24 0 6 10 16 21 23 16 8 18 13 9 19 -9 6 -6 10 11 13
32 7 112 -2 124 -14z m-75 -74 c-11 -13 -10 -14 5 -8 14 5 17 3 13 -9 -4 -9
-2 -20 4 -26 6 -6 7 -15 4 -21 -9 -14 -36 -14 -36 -1 0 6 -9 10 -19 10 -23 0
-22 22 4 50 21 23 44 28 25 5z m-140 -5 c0 -5 -5 -10 -11 -10 -5 0 -7 5 -4 10
3 6 8 10 11 10 2 0 4 -4 4 -10z m720 -10 c0 -5 -5 -10 -11 -10 -5 0 -7 5 -4
10 3 6 8 10 11 10 2 0 4 -4 4 -10z m-394 -34 c4 -13 1 -24 -9 -30 -14 -9 -14
-11 0 -21 28 -21 8 -83 -43 -132 -24 -24 -46 -43 -49 -43 -2 0 0 12 5 28 10
26 9 25 -19 -8 l-29 -34 5 27 c3 16 16 35 30 44 13 9 23 23 22 32 -2 9 2 32 8
51 5 19 8 51 6 71 -5 34 -4 35 31 35 27 0 37 -5 42 -20z m361 -8 c-3 -7 -5 -2
-5 12 0 14 2 19 5 13 2 -7 2 -19 0 -25z m150 0 c-3 -7 -5 -2 -5 12 0 14 2 19
5 13 2 -7 2 -19 0 -25z m60 -15 c-3 -10 -5 -2 -5 17 0 19 2 27 5 18 2 -10 2
-26 0 -35z m-320 15 c-3 -8 -6 -5 -6 6 -1 11 2 17 5 13 3 -3 4 -12 1 -19z
m354 -1 c-10 -9 -11 -8 -5 6 3 10 9 15 12 12 3 -3 0 -11 -7 -18z m-921 -42 c0
-8 -11 -27 -24 -42 -22 -25 -25 -26 -31 -10 -5 12 0 24 14 36 11 10 21 24 21
30 0 7 5 9 10 6 6 -3 10 -12 10 -20z m117 9 c10 -26 -14 -41 -34 -22 -15 16
-15 17 5 11 12 -3 22 -1 22 5 0 6 -8 13 -17 15 -17 4 -17 5 0 6 10 0 20 -6 24
-15z m105 9 c-6 -2 -10 -9 -6 -14 6 -11 -51 -65 -75 -72 -21 -5 -61 9 -61 23
0 5 6 10 14 10 8 0 24 12 35 28 11 15 21 22 21 15 0 -6 9 -9 20 -6 11 3 17 9
14 14 -3 5 7 9 23 8 15 0 22 -3 15 -6z m-44 -113 c-13 -21 -52 -27 -63 -10 -4
6 6 10 24 10 16 0 33 5 36 10 3 6 8 10 11 10 2 0 -1 -9 -8 -20z m-174 -39 c-2
-3 -12 3 -22 13 -16 17 -16 18 5 5 12 -7 20 -15 17 -18z m5339 -43 c3 -10 -20
-12 -103 -10 -88 3 -108 0 -113 -12 -3 -8 1 -17 9 -20 9 -3 12 -1 9 4 -3 6 -1
10 4 10 6 0 10 -10 8 -22 -1 -18 4 -24 23 -26 13 -2 35 -13 49 -23 24 -19 24
-19 46 5 21 22 27 24 116 20 52 -2 110 -10 129 -17 29 -12 54 -12 143 -3 l107
12 0 -49 c0 -26 -4 -46 -8 -43 -5 3 -32 -1 -60 -9 -51 -13 -151 -13 -172 0 -6
4 -18 1 -26 -6 -13 -10 -17 -10 -23 0 -6 10 -12 9 -24 -3 -8 -9 -20 -16 -25
-16 -13 0 -43 -35 -36 -43 3 -3 75 -3 160 0 112 4 154 3 154 -6 0 -6 14 -11
30 -11 30 0 30 0 29 -57 0 -32 -3 -52 -6 -45 -2 6 -9 12 -14 12 -6 0 -8 -4 -4
-9 3 -6 -6 -6 -25 -1 -18 5 -30 5 -30 -1 0 -12 -47 -12 -55 1 -4 6 -16 8 -27
4 -14 -4 -18 -2 -14 5 4 7 -1 11 -13 11 -11 0 -22 4 -25 9 -9 15 -67 23 -171
25 -80 1 -109 6 -145 24 -25 12 -56 22 -70 22 -14 0 -43 9 -65 20 -22 11 -46
20 -54 20 -8 0 -43 10 -78 21 l-63 22 0 93 0 93 -92 4 c-51 1 45 4 213 5 238
2 308 -1 312 -10z m1160 -14 c10 -11 -4 -33 -18 -28 -22 9 -27 34 -6 34 10 0
20 -3 24 -6z m133 -18 c3 -13 4 -34 2 -46 -3 -22 -3 -22 -25 -2 -30 25 -31 72
-3 72 12 0 22 -9 26 -24z m-1306 4 c8 -5 13 -10 10 -11 -3 0 -13 -2 -22 -4
-10 -2 -18 3 -18 11 0 16 9 18 30 4z m-5085 -240 c22 -11 48 -33 58 -49 24
-41 22 -131 -4 -131 -16 0 -49 44 -44 60 3 9 -5 36 -17 60 -19 38 -28 46 -55
48 -28 3 -36 -2 -53 -30 -11 -18 -20 -46 -20 -63 0 -16 -1 -41 -2 -55 -2 -16
2 -24 10 -23 6 2 12 -4 12 -12 0 -34 93 -42 112 -9 5 7 17 10 28 7 16 -4 18
-8 9 -19 -6 -8 -18 -14 -25 -14 -8 0 -14 -4 -14 -10 0 -5 -20 -10 -45 -10 -55
0 -109 25 -101 46 3 9 1 12 -4 9 -6 -4 -17 10 -26 30 -35 85 28 178 125 184 8
1 33 -8 56 -19z m-60 -60 c3 -5 -1 -10 -9 -10 -9 0 -16 5 -16 10 0 6 4 10 9
10 6 0 13 -4 16 -10z m-30 -39 c3 -5 1 -12 -5 -16 -5 -3 -10 1 -10 9 0 18 6
21 15 7z m35 -1 c0 -5 -4 -10 -10 -10 -5 0 -10 5 -10 10 0 6 5 10 10 10 6 0
10 -4 10 -10z m5467 -45 c0 -17 -30 -19 -117 -8 l-55 8 40 6 c80 12 132 10
132 -6z m-1209 -192 l-2 -68 -3 63 -4 64 -65 -4 c-35 -2 -64 0 -64 5 0 4 32 7
70 7 l70 0 -2 -67z m-2388 53 c0 -2 -7 -7 -16 -10 -8 -3 -12 -2 -9 4 6 10 25
14 25 6z m50 -18 c0 -6 -6 -5 -15 2 -8 7 -15 14 -15 16 0 2 7 1 15 -2 8 -4 15
-11 15 -16z m61 5 c13 -16 12 -17 -3 -4 -10 7 -18 15 -18 17 0 8 8 3 21 -13z
m458 -16 l25 -32 -32 29 c-33 31 -37 36 -24 35 4 0 18 -14 31 -32z m111 23 c0
-5 -4 -10 -10 -10 -5 0 -10 5 -10 10 0 6 5 10 10 10 6 0 10 -4 10 -10z m-423
-72 c-3 -7 -5 -2 -5 12 0 14 2 19 5 13 2 -7 2 -19 0 -25z m-251 -20 l29 -33
-32 29 c-31 28 -38 36 -30 36 2 0 16 -15 33 -32z m2279 -18 c-16 -16 -31 -28
-33 -25 -4 4 48 54 57 55 3 0 -8 -13 -24 -30z m66 13 c13 -16 12 -17 -3 -4
-17 13 -22 21 -14 21 2 0 10 -8 17 -17z m39 -33 c0 -5 -2 -10 -4 -10 -3 0 -8
5 -11 10 -3 6 -1 10 4 10 6 0 11 -4 11 -10z m1840 -65 c31 -16 43 -33 54 -77
4 -17 2 -28 -4 -28 -5 0 -9 3 -9 8 4 23 -2 34 -18 28 -10 -4 -25 2 -38 14 -19
18 -26 19 -51 10 -16 -6 -32 -17 -36 -23 -5 -8 -8 -6 -8 6 0 9 -7 17 -16 17
-9 0 -14 7 -12 18 2 11 19 21 48 29 59 15 57 15 90 -2z m-4227 -60 c-19 -25
-33 -32 -33 -16 0 9 38 41 48 41 1 0 -5 -11 -15 -25z m554 -52 c-3 -10 -5 -2
-5 17 0 19 2 27 5 18 2 -10 2 -26 0 -35z m230 0 c-3 -10 -5 -2 -5 17 0 19 2
27 5 18 2 -10 2 -26 0 -35z m784 15 c-3 -21 -6 -26 -9 -15 -3 17 3 47 11 47 2
0 1 -15 -2 -32z m186 -15 c-3 -10 -5 -2 -5 17 0 19 2 27 5 18 2 -10 2 -26 0
-35z m-32 27 c3 -5 1 -10 -4 -10 -6 0 -11 5 -11 10 0 6 2 10 4 10 3 0 8 -4 11
-10z m-1078 -32 c-3 -7 -5 -2 -5 12 0 14 2 19 5 13 2 -7 2 -19 0 -25z m170
-15 c-3 -10 -5 -2 -5 17 0 19 2 27 5 18 2 -10 2 -26 0 -35z m121 16 c-3 -8 -7
-3 -11 10 -4 17 -3 21 5 13 5 -5 8 -16 6 -23z m150 0 c-3 -8 -7 -3 -11 10 -4
17 -3 21 5 13 5 -5 8 -16 6 -23z m25 16 c-3 -9 -8 -14 -10 -11 -3 3 -2 9 2 15
9 16 15 13 8 -4z m34 -32 c-3 -10 -5 -2 -5 17 0 19 2 27 5 18 2 -10 2 -26 0
-35z m460 25 c-3 -8 -6 -5 -6 6 -1 11 2 17 5 13 3 -3 4 -12 1 -19z m270 -10
c-3 -7 -5 -2 -5 12 0 14 2 19 5 13 2 -7 2 -19 0 -25z m-1150 0 c-3 -8 -6 -5
-6 6 -1 11 2 17 5 13 3 -3 4 -12 1 -19z m270 0 c-3 -8 -6 -5 -6 6 -1 11 2 17
5 13 3 -3 4 -12 1 -19z m660 0 c-3 -8 -6 -5 -6 6 -1 11 2 17 5 13 3 -3 4 -12
1 -19z m160 0 c-3 -8 -6 -5 -6 6 -1 11 2 17 5 13 3 -3 4 -12 1 -19z m-287 -12
c-7 -7 -13 -7 -20 0 -6 6 -3 10 10 10 13 0 16 -4 10 -10z m3050 -13 c0 -5
-142 -7 -316 -5 -204 2 -321 -1 -329 -8 -6 -5 -15 -6 -19 -2 -10 9 -125 9
-119 0 2 -5 -2 -8 -11 -8 -8 0 -21 -3 -30 -6 -11 -4 -14 0 -13 15 1 21 3 21
419 21 230 0 418 -3 418 -7z"/>
<path d="M6046 4682 c-3 -5 10 -8 29 -8 18 1 31 4 28 9 -6 10 -51 9 -57 -1z"/>
<path d="M4062 4655 c1 -14 5 -25 9 -25 4 0 7 11 7 25 0 14 -4 25 -9 25 -5 0
-8 -11 -7 -25z"/>
<path d="M4156 4661 c-4 -7 -5 -15 -2 -18 9 -9 19 4 14 18 -4 11 -6 11 -12 0z"/>
<path d="M5922 4408 c-17 -17 -15 -93 2 -107 8 -7 36 -11 63 -9 l48 3 3 54 c2
37 -1 57 -10 62 -20 13 -92 11 -106 -3z m58 -49 c0 -6 9 -8 23 -4 17 6 19 5
10 -5 -7 -8 -22 -10 -43 -5 -24 5 -29 10 -19 16 19 12 29 11 29 -2z"/>
<path d="M3928 4413 c-25 -12 -28 -20 -28 -64 l0 -49 70 0 70 0 0 49 c0 46 -3
51 -32 65 -37 19 -44 19 -80 -1z m80 -62 c4 -28 -40 -50 -63 -31 -20 17 -19
57 3 69 22 13 56 -8 60 -38z"/>
<path d="M3943 4364 c-3 -8 1 -22 9 -30 19 -19 52 3 42 29 -8 21 -43 22 -51 1z"/>
<path d="M5060 4350 c0 -33 15 -41 22 -12 6 21 -1 42 -13 42 -5 0 -9 -13 -9
-30z"/>
<path d="M5144 4365 c-8 -20 3 -48 16 -40 13 8 13 55 0 55 -6 0 -13 -7 -16
-15z"/>
<path d="M5295 4360 c-7 -23 2 -43 16 -35 12 8 12 55 0 55 -5 0 -12 -9 -16
-20z"/>
<path d="M4932 4339 c2 -7 10 -15 17 -17 8 -3 12 1 9 9 -2 7 -10 15 -17 17 -8
3 -12 -1 -9 -9z"/>
<path d="M4046 4031 c-37 -41 -62 -151 -34 -151 6 0 8 -3 5 -6 -8 -9 11 -44
24 -44 14 0 5 80 -11 90 -9 5 -9 9 -1 14 6 4 11 20 11 36 0 34 23 50 62 43 36
-7 55 -59 39 -104 -6 -17 -8 -43 -5 -56 l7 -25 12 28 c18 45 16 95 -8 144 -19
38 -27 45 -54 47 -19 1 -38 -6 -47 -16z"/>
<path d="M4100 3970 c0 -5 5 -10 10 -10 6 0 10 5 10 10 0 6 -4 10 -10 10 -5 0
-10 -4 -10 -10z"/>
<path d="M4060 3960 c0 -5 5 -10 10 -10 6 0 10 5 10 10 0 6 -4 10 -10 10 -5 0
-10 -4 -10 -10z"/>
<path d="M4098 3912 c-3 -11 0 -19 8 -19 8 0 14 9 14 19 0 10 -4 18 -9 18 -5
0 -11 -8 -13 -18z"/>
<path d="M4076 3862 c6 -4 13 -14 16 -22 3 -10 6 -8 10 8 5 18 2 22 -15 22
-13 0 -17 -3 -11 -8z"/>
<path d="M4110 3835 c0 -8 -7 -15 -15 -15 -8 0 -15 -4 -15 -10 0 -5 9 -10 20
-10 15 0 20 7 20 25 0 14 -2 25 -5 25 -3 0 -5 -7 -5 -15z"/>
<path d="M5224 4045 c-7 -18 14 -47 27 -39 5 3 9 16 9 30 0 27 -27 34 -36 9z"/>
<path d="M1960 4040 c0 -5 5 -10 10 -10 6 0 10 5 10 10 0 6 -4 10 -10 10 -5 0
-10 -4 -10 -10z"/>
<path d="M2055 4030 c-3 -5 -1 -10 4 -10 6 0 11 5 11 10 0 6 -2 10 -4 10 -3 0
-8 -4 -11 -10z"/>
<path d="M2880 3735 c0 -20 4 -26 18 -23 9 2 17 12 17 23 0 11 -8 21 -17 23
-14 3 -18 -3 -18 -23z"/>
<path d="M3035 3740 c-3 -5 1 -10 10 -10 9 0 13 5 10 10 -3 6 -8 10 -10 10 -2
0 -7 -4 -10 -10z"/>
<path d="M7015 3730 c-7 -12 2 -30 16 -30 12 0 12 27 0 35 -5 3 -12 1 -16 -5z"/>
<path d="M7090 3720 c0 -19 11 -26 23 -14 8 8 -3 34 -14 34 -5 0 -9 -9 -9 -20z"/>
<path d="M7294 3726 c-8 -22 3 -33 18 -18 9 9 9 15 0 24 -9 9 -13 7 -18 -6z"/>
<path d="M7365 3730 c-3 -5 1 -10 10 -10 9 0 13 5 10 10 -3 6 -8 10 -10 10 -2
0 -7 -4 -10 -10z"/>
<path d="M3944 3365 c-15 -36 -11 -80 9 -92 7 -4 8 6 4 30 -8 48 1 77 24 77
25 0 40 -32 32 -71 -4 -23 -3 -30 5 -25 17 10 15 68 -4 94 -23 33 -52 28 -70
-13z"/>
<path d="M3985 3320 c-3 -5 -1 -10 4 -10 6 0 11 5 11 10 0 6 -2 10 -4 10 -3 0
-8 -4 -11 -10z"/>
<path d="M3984 3274 c-1 -13 2 -21 7 -18 11 6 12 31 2 37 -5 3 -9 -6 -9 -19z"/>
<path d="M4187 3324 c-8 -8 1 -24 14 -24 5 0 9 7 9 15 0 15 -12 20 -23 9z"/>
<path d="M4247 3324 c-8 -8 1 -24 14 -24 5 0 9 7 9 15 0 15 -12 20 -23 9z"/>
<path d="M4420 3315 c0 -8 5 -15 10 -15 6 0 10 7 10 15 0 8 -4 15 -10 15 -5 0
-10 -7 -10 -15z"/>
<path d="M7006 3303 c-12 -13 -6 -53 9 -53 9 0 15 9 15 24 0 26 -12 40 -24 29z"/>
<path d="M7156 3281 c-4 -7 -5 -15 -2 -18 9 -9 19 4 14 18 -4 11 -6 11 -12 0z"/>
<path d="M8286 3273 c-11 -11 -6 -23 9 -23 8 0 15 4 15 9 0 13 -16 22 -24 14z"/>
<path d="M6940 3154 c0 -17 22 -14 28 4 2 7 -3 12 -12 12 -9 0 -16 -7 -16 -16z"/>
<path d="M7000 3135 c0 -9 5 -15 11 -13 6 2 11 8 11 13 0 5 -5 11 -11 13 -6 2
-11 -4 -11 -13z"/>
<path d="M7470 3135 c0 -9 5 -15 11 -13 6 2 11 8 11 13 0 5 -5 11 -11 13 -6 2
-11 -4 -11 -13z"/>
<path d="M7570 3135 c0 -8 7 -15 15 -15 8 0 15 7 15 15 0 8 -7 15 -15 15 -8 0
-15 -7 -15 -15z"/>
<path d="M8030 3135 c0 -8 7 -15 15 -15 8 0 15 7 15 15 0 8 -7 15 -15 15 -8 0
-15 -7 -15 -15z"/>
<path d="M8137 3144 c-8 -8 1 -24 14 -24 5 0 9 7 9 15 0 15 -12 20 -23 9z"/>
<path d="M8347 3144 c-8 -8 1 -24 14 -24 5 0 9 7 9 15 0 15 -12 20 -23 9z"/>
<path d="M5762 2007 c-15 -4 -35 -5 -44 -3 -10 2 -21 0 -24 -5 -5 -8 184 -2
194 6 9 7 -102 9 -126 2z"/>
<path d="M5643 1993 c9 -2 23 -2 30 0 6 3 -1 5 -18 5 -16 0 -22 -2 -12 -5z"/>
<path d="M6300 1979 c0 -5 5 -7 10 -4 6 3 10 8 10 11 0 2 -4 4 -10 4 -5 0 -10
-5 -10 -11z"/>
<path d="M5048 1953 c7 -3 16 -2 19 1 4 3 -2 6 -13 5 -11 0 -14 -3 -6 -6z"/>
<path d="M5104 1948 c-3 -5 -3 -12 0 -15 3 -4 6 -1 6 5 0 8 12 11 35 8 19 -3
35 -1 35 3 0 11 -69 10 -76 -1z"/>
<path d="M5195 1950 c4 -6 11 -8 16 -5 14 9 11 15 -7 15 -8 0 -12 -5 -9 -10z"/>
<path d="M4210 1919 c-16 -4 1 -7 49 -8 41 -1 72 1 70 3 -9 8 -96 12 -119 5z"/>
<path d="M5045 1896 c-16 -38 -65 -58 -65 -26 0 12 -8 17 -30 17 -30 0 -41
-19 -19 -33 8 -4 8 -9 0 -17 -6 -6 -11 -18 -11 -27 0 -8 -12 -23 -27 -32 -31
-20 -19 -23 23 -7 28 10 28 10 9 -11 -10 -11 -15 -23 -12 -27 4 -4 13 0 20 9
6 8 26 24 42 36 30 20 31 20 70 2 46 -21 56 -18 30 10 -20 22 -24 95 -6 113
14 14 14 27 0 27 -5 0 -16 -15 -24 -34z"/>
<path d="M4698 1882 c-51 -6 -29 -22 30 -21 57 1 131 15 102 19 -31 4 -106 5
-132 2z"/>
<path d="M4050 1860 c0 -5 5 -10 11 -10 5 0 7 5 4 10 -3 6 -8 10 -11 10 -2 0
-4 -4 -4 -10z"/>
<path d="M5088 1853 c7 -3 16 -2 19 1 4 3 -2 6 -13 5 -11 0 -14 -3 -6 -6z"/>
<path d="M4438 1833 c7 -3 16 -2 19 1 4 3 -2 6 -13 5 -11 0 -14 -3 -6 -6z"/>
<path d="M4091 1796 c2 -2 18 -6 34 -10 22 -5 26 -4 15 4 -14 9 -59 15 -49 6z"/>
<path d="M4568 1783 c6 -2 10 -9 6 -14 -3 -5 5 -9 17 -9 18 0 19 2 9 15 -7 8
-20 15 -29 14 -10 0 -12 -2 -3 -6z"/>
<path d="M4480 1760 c-12 -8 -10 -10 10 -9 14 0 34 4 45 9 17 7 16 9 -10 9
-16 0 -37 -4 -45 -9z"/>
<path d="M4236 1751 c-4 -5 3 -7 14 -4 23 6 26 13 6 13 -8 0 -17 -4 -20 -9z"/>
<path d="M4355 1740 c-4 -6 9 -10 32 -10 28 0 34 3 23 10 -20 13 -47 13 -55 0z"/>
<path d="M4040 1730 c0 -12 17 -12 45 0 17 7 15 9 -12 9 -18 1 -33 -3 -33 -9z"/>
<path d="M4264 1705 c12 -12 25 -14 53 -9 35 7 36 8 13 15 -14 4 -38 7 -53 8
-26 1 -27 -1 -13 -14z"/>
<path d="M4212 1693 c-33 -7 -18 -20 17 -15 17 2 28 8 25 13 -3 5 -8 8 -12 8
-4 -1 -17 -4 -30 -6z"/>
<path d="M4538 1533 c7 -3 16 -2 19 1 4 3 -2 6 -13 5 -11 0 -14 -3 -6 -6z"/>
<path d="M1870 3080 c0 -5 5 -10 10 -10 6 0 10 5 10 10 0 6 -4 10 -10 10 -5 0
-10 -4 -10 -10z"/>
<path d="M1983 2699 c-15 -5 -23 -16 -22 -31 0 -21 1 -22 8 -3 4 11 19 22 32
25 13 3 19 9 14 12 -6 3 -20 2 -32 -3z"/>
<path d="M2580 2695 c0 -9 5 -15 11 -13 6 2 11 8 11 13 0 5 -5 11 -11 13 -6 2
-11 -4 -11 -13z"/>
<path d="M2680 2695 c0 -8 5 -15 10 -15 6 0 10 7 10 15 0 8 -4 15 -10 15 -5 0
-10 -7 -10 -15z"/>
<path d="M7270 2584 c0 -17 22 -14 28 4 2 7 -3 12 -12 12 -9 0 -16 -7 -16 -16z"/>
<path d="M7368 2573 c7 -3 16 -2 19 1 4 3 -2 6 -13 5 -11 0 -14 -3 -6 -6z"/>
<path d="M2665 2580 c-4 -6 -3 -16 3 -22 6 -6 12 -6 17 2 4 6 3 16 -3 22 -6 6
-12 6 -17 -2z"/>
<path d="M2785 2580 c-4 -6 -3 -16 3 -22 6 -6 12 -6 17 2 4 6 3 16 -3 22 -6 6
-12 6 -17 -2z"/>
<path d="M2885 2580 c-4 -6 -3 -16 3 -22 6 -6 12 -6 17 2 4 6 3 16 -3 22 -6 6
-12 6 -17 -2z"/>
<path d="M7040 2195 c0 -8 5 -15 10 -15 6 0 10 7 10 15 0 8 -4 15 -10 15 -5 0
-10 -7 -10 -15z"/>
<path d="M7190 2215 c0 -9 5 -15 11 -13 6 2 11 8 11 13 0 5 -5 11 -11 13 -6 2
-11 -4 -11 -13z"/>
<path d="M7290 2195 c0 -9 5 -15 11 -13 6 2 11 8 11 13 0 5 -5 11 -11 13 -6 2
-11 -4 -11 -13z"/>
<path d="M2417 2074 c-8 -8 1 -24 14 -24 5 0 9 7 9 15 0 15 -12 20 -23 9z"/>
<path d="M2897 2074 c-8 -8 1 -24 14 -24 5 0 9 7 9 15 0 15 -12 20 -23 9z"/>
<path d="M7834 1802 c4 -7 26 -22 49 -33 49 -25 39 -12 -17 21 -22 13 -36 18
-32 12z"/>
<path d="M8008 1804 c-3 -3 -2 -20 2 -39 4 -19 5 -36 2 -39 -3 -4 2 -6 11 -6
10 0 17 8 17 19 0 23 -25 73 -32 65z"/>
<path d="M7878 1704 c13 -9 30 -13 40 -9 15 6 15 8 -3 15 -11 5 -29 9 -40 9
-18 1 -18 0 3 -15z"/>
<path d="M6838 1593 c7 -3 16 -2 19 1 4 3 -2 6 -13 5 -11 0 -14 -3 -6 -6z"/>
</g>
</svg>
